<svg width="520" height="155" viewBox="0 0 520 155" fill="none" xmlns="http://www.w3.org/2000/svg">
<path d="M81.9959 155C70.2924 155 59.3738 153.073 49.2403 149.22C39.2495 145.366 30.5433 139.942 23.1215 132.949C15.8425 125.955 10.1335 117.749 5.99448 108.329C1.99816 98.9088 0 88.6326 0 77.5C0 66.3674 1.99816 56.0912 5.99448 46.6713C10.1335 37.2514 15.9139 29.0447 23.3356 22.0511C30.7574 15.0575 39.4636 9.63397 49.4544 5.78038C59.4452 1.92679 70.2924 0 81.9959 0C93.8421 0 104.689 1.92679 114.537 5.78038C124.528 9.63397 133.163 15.0575 140.442 22.0511C147.864 28.9019 153.644 37.0373 157.783 46.4572C161.922 55.8771 163.992 66.2247 163.992 77.5C163.992 88.6326 161.922 98.9802 157.783 108.543C156.384 111.726 154.798 114.771 153.025 117.677C151.014 120.972 148.762 124.089 146.27 127.027C144.455 129.167 142.512 131.212 140.442 133.163C138.973 134.546 137.449 135.867 135.869 137.128C133.373 139.12 130.74 140.959 127.968 142.646C123.803 145.181 119.326 147.373 114.537 149.22C104.689 153.073 93.8421 155 81.9959 155Z" fill="#135486"/>
<path d="M190.057 152.431V2.56905H254.926C268.342 2.56905 279.903 4.7813 289.608 9.2058C299.313 13.4876 306.807 19.6961 312.087 27.8315C317.368 35.9668 320.009 45.6722 320.009 56.9475C320.009 68.0801 317.368 77.7141 312.087 85.8494C306.807 93.8421 299.313 99.9793 289.608 104.261C279.903 108.543 268.342 110.684 254.926 110.684H209.325L224.739 95.4834V152.431H190.057ZM285.326 152.431L247.861 98.0525H284.898L322.792 152.431H285.326ZM224.739 99.337L209.325 83.0663H252.999C263.703 83.0663 271.696 80.7827 276.977 76.2155C282.258 71.5055 284.898 65.0829 284.898 56.9475C284.898 48.6694 282.258 42.2468 276.977 37.6796C271.696 33.1123 263.703 30.8287 252.999 30.8287H209.325L224.739 14.3439V99.337Z" fill="#135486"/>
<path d="M146.27 127.027C144.455 129.167 142.512 131.212 140.442 133.163C138.973 134.546 137.449 135.867 135.869 137.128C133.373 139.12 130.74 140.959 127.968 142.646L140.323 155H163.992V128.644L153.025 117.677C151.014 120.972 148.762 124.089 146.27 127.027Z" fill="#135486"/>
<rect x="27.5737" y="26" width="107.853" height="102" rx="17.18" fill="white"/>
<path d="M95.2932 76.7897V90.2655M81.0442 36.3622V49.838M109.542 76.7897V90.2655M81.0442 103.741H123.791M109.542 117.217H123.791M52.5461 76.7897H66.7951M52.5461 49.8879L52.5936 49.838M81.0442 76.8396L81.0917 76.7897M38.2971 76.8396L38.3446 76.7897M81.0442 63.3638L81.0917 63.3139M81.0442 90.3154L81.0917 90.2655M95.2932 117.267L95.3407 117.217M81.0442 117.267L81.0917 117.217M123.791 76.8396L123.839 76.7897M123.791 90.3154L123.839 90.2655M109.542 49.8879L109.59 49.838M52.5461 103.791L52.5936 103.741M66.7951 39.0573V60.6187C66.7951 62.1072 65.5192 63.3139 63.9453 63.3139H41.1469C39.573 63.3139 38.2971 62.1072 38.2971 60.6187V39.0573C38.2971 37.5689 39.573 36.3622 41.1469 36.3622H63.9453C65.5192 36.3622 66.7951 37.5689 66.7951 39.0573ZM123.791 39.0573V60.6187C123.791 62.1072 122.516 63.3139 120.941 63.3139H98.143C96.569 63.3139 95.2932 62.1072 95.2932 60.6187V39.0573C95.2932 37.5689 96.569 36.3622 98.143 36.3622H120.941C122.516 36.3622 123.791 37.5689 123.791 39.0573ZM66.7951 92.9607V114.522C66.7951 116.011 65.5192 117.217 63.9453 117.217H41.1469C39.573 117.217 38.2971 116.011 38.2971 114.522V92.9607C38.2971 91.4721 39.573 90.2655 41.1469 90.2655H63.9453C65.5192 90.2655 66.7951 91.4721 66.7951 92.9607Z" stroke="#135486" stroke-width="7.12452" stroke-linecap="round" stroke-linejoin="round"/>
<rect x="342.792" y="14.5" width="177" height="79" rx="16" fill="#135486"/>
<path d="M374.31 35.9531H380.511L389.642 62.0518L398.773 35.9531H404.974L392.133 71.5H387.152L374.31 35.9531ZM370.966 35.9531H377.142L378.265 61.3926V71.5H370.966V35.9531ZM402.142 35.9531H408.344V71.5H401.019V61.3926L402.142 35.9531ZM426.483 71.9883C424.432 71.9883 422.593 71.6628 420.966 71.0117C419.338 70.3444 417.955 69.4248 416.815 68.2529C415.692 67.0811 414.83 65.722 414.227 64.1758C413.625 62.6133 413.324 60.9531 413.324 59.1953V58.2188C413.324 56.2168 413.609 54.3857 414.178 52.7256C414.748 51.0654 415.562 49.625 416.62 48.4043C417.694 47.1836 418.996 46.2477 420.526 45.5967C422.056 44.9294 423.781 44.5957 425.702 44.5957C427.574 44.5957 429.234 44.9049 430.682 45.5234C432.131 46.1419 433.344 47.0208 434.32 48.1602C435.313 49.2995 436.062 50.6667 436.566 52.2617C437.071 53.8405 437.323 55.5983 437.323 57.5352V60.4648H416.327V55.7773H430.414V55.2402C430.414 54.2637 430.235 53.3929 429.877 52.6279C429.535 51.8467 429.014 51.2282 428.314 50.7725C427.614 50.3167 426.719 50.0889 425.629 50.0889C424.701 50.0889 423.903 50.2923 423.236 50.6992C422.569 51.1061 422.024 51.6758 421.6 52.4082C421.193 53.1406 420.884 54.0033 420.673 54.9961C420.477 55.9727 420.38 57.0469 420.38 58.2188V59.1953C420.38 60.2533 420.526 61.2298 420.819 62.125C421.128 63.0202 421.56 63.7933 422.113 64.4443C422.683 65.0954 423.366 65.5999 424.164 65.958C424.978 66.3161 425.897 66.4951 426.923 66.4951C428.192 66.4951 429.372 66.251 430.463 65.7627C431.569 65.2581 432.522 64.5013 433.319 63.4922L436.737 67.2031C436.184 68.0007 435.427 68.7656 434.467 69.498C433.523 70.2305 432.383 70.8327 431.049 71.3047C429.714 71.7604 428.192 71.9883 426.483 71.9883ZM448.212 50.7236V71.5H441.18V45.084H447.772L448.212 50.7236ZM447.186 57.3643H445.282C445.282 55.4111 445.534 53.6533 446.039 52.0908C446.543 50.512 447.251 49.1693 448.163 48.0625C449.074 46.9395 450.157 46.085 451.41 45.499C452.679 44.8968 454.095 44.5957 455.658 44.5957C456.895 44.5957 458.026 44.7747 459.052 45.1328C460.077 45.4909 460.956 46.0605 461.688 46.8418C462.437 47.623 463.007 48.6566 463.397 49.9424C463.804 51.2282 464.008 52.7988 464.008 54.6543V71.5H456.927V54.6299C456.927 53.458 456.765 52.5465 456.439 51.8955C456.114 51.2445 455.634 50.7887 454.999 50.5283C454.38 50.2516 453.615 50.1133 452.704 50.1133C451.76 50.1133 450.938 50.3005 450.238 50.6748C449.554 51.0492 448.985 51.57 448.529 52.2373C448.09 52.8883 447.756 53.6533 447.528 54.5322C447.3 55.4111 447.186 56.3551 447.186 57.3643ZM484.979 65.1768V45.084H492.01V71.5H485.394L484.979 65.1768ZM485.76 59.7568L487.836 59.708C487.836 61.4658 487.632 63.1016 487.225 64.6152C486.818 66.1126 486.208 67.4147 485.394 68.5215C484.58 69.612 483.555 70.4665 482.318 71.085C481.081 71.6872 479.624 71.9883 477.948 71.9883C476.662 71.9883 475.474 71.8092 474.384 71.4512C473.309 71.0768 472.382 70.499 471.6 69.7178C470.835 68.9202 470.233 67.903 469.794 66.666C469.371 65.4128 469.159 63.9072 469.159 62.1494V45.084H476.19V62.1982C476.19 62.9795 476.28 63.6387 476.459 64.1758C476.654 64.7129 476.923 65.1523 477.264 65.4941C477.606 65.8359 478.005 66.0801 478.461 66.2266C478.933 66.373 479.454 66.4463 480.023 66.4463C481.472 66.4463 482.611 66.1533 483.441 65.5674C484.288 64.9814 484.882 64.1839 485.223 63.1748C485.581 62.1494 485.76 61.0101 485.76 59.7568Z" fill="white"/>
<path d="M403.453 118.478V119.657C403.453 121.548 403.197 123.246 402.684 124.75C402.171 126.253 401.448 127.535 400.513 128.595C399.579 129.643 398.463 130.446 397.164 131.004C395.876 131.563 394.447 131.842 392.874 131.842C391.313 131.842 389.884 131.563 388.585 131.004C387.297 130.446 386.181 129.643 385.235 128.595C384.289 127.535 383.555 126.253 383.031 124.75C382.518 123.246 382.261 121.548 382.261 119.657V118.478C382.261 116.575 382.518 114.877 383.031 113.385C383.543 111.881 384.267 110.599 385.201 109.54C386.147 108.48 387.263 107.671 388.551 107.113C389.849 106.555 391.279 106.275 392.84 106.275C394.412 106.275 395.842 106.555 397.13 107.113C398.428 107.671 399.545 108.48 400.479 109.54C401.425 110.599 402.154 111.881 402.667 113.385C403.191 114.877 403.453 116.575 403.453 118.478ZM398.275 119.657V118.443C398.275 117.122 398.155 115.96 397.916 114.957C397.677 113.954 397.323 113.111 396.856 112.428C396.389 111.744 395.819 111.231 395.147 110.89C394.475 110.536 393.706 110.36 392.84 110.36C391.974 110.36 391.205 110.536 390.533 110.89C389.872 111.231 389.308 111.744 388.841 112.428C388.385 113.111 388.038 113.954 387.799 114.957C387.559 115.96 387.44 117.122 387.44 118.443V119.657C387.44 120.967 387.559 122.129 387.799 123.143C388.038 124.146 388.391 124.994 388.858 125.689C389.325 126.373 389.895 126.891 390.567 127.245C391.239 127.598 392.008 127.774 392.874 127.774C393.74 127.774 394.509 127.598 395.181 127.245C395.854 126.891 396.418 126.373 396.873 125.689C397.329 124.994 397.677 124.146 397.916 123.143C398.155 122.129 398.275 120.967 398.275 119.657ZM411.656 116.957V131.5H406.734V113.009H411.348L411.656 116.957ZM410.938 121.605H409.605C409.605 120.238 409.782 119.007 410.135 117.914C410.488 116.808 410.984 115.868 411.622 115.094C412.26 114.308 413.017 113.709 413.895 113.299C414.783 112.878 415.775 112.667 416.868 112.667C417.734 112.667 418.526 112.792 419.244 113.043C419.962 113.294 420.577 113.692 421.09 114.239C421.614 114.786 422.012 115.51 422.286 116.41C422.571 117.31 422.713 118.409 422.713 119.708V131.5H417.757V119.691C417.757 118.871 417.643 118.233 417.415 117.777C417.187 117.321 416.851 117.002 416.407 116.82C415.974 116.626 415.439 116.529 414.801 116.529C414.14 116.529 413.564 116.66 413.074 116.922C412.596 117.184 412.197 117.549 411.878 118.016C411.571 118.472 411.337 119.007 411.177 119.623C411.018 120.238 410.938 120.899 410.938 121.605ZM431.651 105.25V131.5H426.712V105.25H431.651ZM440.914 113.009V131.5H435.975V113.009H440.914ZM435.667 108.189C435.667 107.472 435.918 106.879 436.419 106.412C436.92 105.945 437.593 105.711 438.436 105.711C439.267 105.711 439.934 105.945 440.435 106.412C440.948 106.879 441.204 107.472 441.204 108.189C441.204 108.907 440.948 109.5 440.435 109.967C439.934 110.434 439.267 110.667 438.436 110.667C437.593 110.667 436.92 110.434 436.419 109.967C435.918 109.5 435.667 108.907 435.667 108.189ZM449.801 116.957V131.5H444.879V113.009H449.493L449.801 116.957ZM449.083 121.605H447.75C447.75 120.238 447.926 119.007 448.28 117.914C448.633 116.808 449.128 115.868 449.766 115.094C450.404 114.308 451.162 113.709 452.039 113.299C452.928 112.878 453.919 112.667 455.013 112.667C455.879 112.667 456.671 112.792 457.388 113.043C458.106 113.294 458.721 113.692 459.234 114.239C459.758 114.786 460.157 115.51 460.43 116.41C460.715 117.31 460.858 118.409 460.858 119.708V131.5H455.902V119.691C455.902 118.871 455.788 118.233 455.56 117.777C455.332 117.321 454.996 117.002 454.552 116.82C454.119 116.626 453.583 116.529 452.945 116.529C452.284 116.529 451.709 116.66 451.219 116.922C450.74 117.184 450.342 117.549 450.023 118.016C449.715 118.472 449.482 119.007 449.322 119.623C449.163 120.238 449.083 120.899 449.083 121.605ZM473.111 131.842C471.676 131.842 470.388 131.614 469.249 131.158C468.109 130.691 467.141 130.047 466.344 129.227C465.557 128.407 464.954 127.455 464.532 126.373C464.11 125.279 463.9 124.117 463.9 122.887V122.203C463.9 120.802 464.099 119.52 464.498 118.358C464.897 117.196 465.466 116.188 466.207 115.333C466.959 114.479 467.87 113.823 468.941 113.368C470.012 112.901 471.22 112.667 472.564 112.667C473.874 112.667 475.037 112.883 476.051 113.316C477.065 113.749 477.913 114.365 478.597 115.162C479.292 115.96 479.816 116.917 480.169 118.033C480.522 119.138 480.699 120.369 480.699 121.725V123.775H466.002V120.494H475.863V120.118C475.863 119.435 475.737 118.825 475.487 118.29C475.247 117.743 474.883 117.31 474.393 116.991C473.903 116.672 473.276 116.512 472.513 116.512C471.864 116.512 471.305 116.655 470.838 116.939C470.371 117.224 469.989 117.623 469.693 118.136C469.408 118.648 469.192 119.252 469.044 119.947C468.907 120.631 468.839 121.383 468.839 122.203V122.887C468.839 123.627 468.941 124.311 469.146 124.938C469.363 125.564 469.665 126.105 470.052 126.561C470.451 127.017 470.929 127.37 471.488 127.621C472.057 127.871 472.701 127.997 473.419 127.997C474.307 127.997 475.133 127.826 475.897 127.484C476.671 127.131 477.338 126.601 477.896 125.895L480.289 128.492C479.901 129.05 479.372 129.586 478.699 130.099C478.039 130.611 477.241 131.033 476.307 131.363C475.373 131.682 474.307 131.842 473.111 131.842Z" fill="#135486"/>
</svg>
