<svg width="142" height="142" viewBox="0 0 142 142" fill="none" xmlns="http://www.w3.org/2000/svg">
<rect width="142" height="142" rx="38" fill="white"/>
<path d="M42.6565 99.0609C38.4236 99.0609 34.4745 98.364 30.8094 96.9702C27.1959 95.5765 24.047 93.6148 21.3627 91.0854C18.73 88.5559 16.6651 85.5877 15.1681 82.1807C13.7227 78.7737 13 75.0569 13 71.0305C13 67.004 13.7227 63.2872 15.1681 59.8802C16.6651 56.4732 18.7558 53.505 21.4401 50.9755C24.1244 48.4461 27.2733 46.4844 30.8868 45.0907C34.5003 43.6969 38.4236 43 42.6565 43C46.9411 43 50.8643 43.6969 54.4262 45.0907C58.0397 46.4844 61.1628 48.4461 63.7955 50.9755C66.4798 53.4533 68.5705 56.3958 70.0675 59.8028C71.5646 63.2098 72.3131 66.9524 72.3131 71.0305C72.3131 75.0569 71.5646 78.7995 70.0675 82.2581C69.5617 83.4094 68.988 84.5107 68.3465 85.5618C67.6192 86.7535 66.8048 87.8808 65.9033 88.9437C65.2469 89.7175 64.5443 90.4572 63.7955 91.1628C63.2642 91.6629 62.7129 92.1409 62.1416 92.5969C61.2389 93.3172 60.2864 93.9825 59.2841 94.5926C57.7774 95.5097 56.1582 96.3022 54.4262 96.9702C50.8643 98.364 46.9411 99.0609 42.6565 99.0609Z" fill="#242424"/>
<path d="M81.7404 98.1317V43.9292H105.202C110.055 43.9292 114.236 44.7293 117.746 46.3296C121.257 47.8782 123.967 50.1238 125.877 53.0662C127.787 56.0086 128.742 59.5189 128.742 63.597C128.742 67.6234 127.787 71.1079 125.877 74.0503C123.967 76.9411 121.257 79.1608 117.746 80.7095C114.236 82.2581 110.055 83.0324 105.202 83.0324H88.7093L94.2844 77.5348V98.1317H81.7404ZM116.198 98.1317L102.647 78.4639H116.043L129.748 98.1317H116.198ZM94.2844 78.9285L88.7093 73.0437H104.506C108.377 73.0437 111.268 72.2178 113.178 70.5659C115.088 68.8624 116.043 66.5394 116.043 63.597C116.043 60.6029 115.088 58.28 113.178 56.6281C111.268 54.9762 108.377 54.1502 104.506 54.1502H88.7093L94.2844 48.188V78.9285Z" fill="#242424"/>
<path d="M65.9033 88.9437C65.2469 89.7175 64.5443 90.4572 63.7955 91.1628C63.2642 91.6629 62.7129 92.1409 62.1416 92.5969C61.2389 93.3172 60.2864 93.9825 59.2841 94.5926L63.7524 99.0609H72.3131V89.5283L68.3465 85.5618C67.6192 86.7535 66.8048 87.8808 65.9033 88.9437Z" fill="#242424"/>
<rect x="22.9727" y="52.4038" width="39.0085" height="36.8917" rx="6.21374" fill="white"/>
<path d="M47.4661 70.7735V75.6475M42.3125 56.1516V61.0256M52.6198 70.7735V75.6475M42.3125 80.5215H57.7734M52.6198 85.3955H57.7734M32.0052 70.7735H37.1588M32.0052 61.0436L32.0224 61.0256M42.3125 70.7916L42.3297 70.7735M26.8516 70.7916L26.8687 70.7735M42.3125 65.9176L42.3297 65.8995M42.3125 75.6655L42.3297 75.6475M47.4661 85.4135L47.4833 85.3955M42.3125 85.4135L42.3297 85.3955M57.7734 70.7916L57.7906 70.7735M57.7734 75.6655L57.7906 75.6475M52.6198 61.0436L52.6369 61.0256M32.0052 80.5395L32.0224 80.5215M37.1588 57.1264V64.9247C37.1588 65.4631 36.6974 65.8995 36.1281 65.8995H27.8823C27.313 65.8995 26.8516 65.4631 26.8516 64.9247V57.1264C26.8516 56.588 27.313 56.1516 27.8823 56.1516H36.1281C36.6974 56.1516 37.1588 56.588 37.1588 57.1264ZM57.7734 57.1264V64.9247C57.7734 65.4631 57.312 65.8995 56.7427 65.8995H48.4969C47.9275 65.8995 47.4661 65.4631 47.4661 64.9247V57.1264C47.4661 56.588 47.9275 56.1516 48.4969 56.1516H56.7427C57.312 56.1516 57.7734 56.588 57.7734 57.1264ZM37.1588 76.6223V84.4207C37.1588 84.9591 36.6974 85.3955 36.1281 85.3955H27.8823C27.313 85.3955 26.8516 84.9591 26.8516 84.4207V76.6223C26.8516 76.0839 27.313 75.6475 27.8823 75.6475H36.1281C36.6974 75.6475 37.1588 76.0839 37.1588 76.6223Z" stroke="#242424" stroke-width="2.57682" stroke-linecap="round" stroke-linejoin="round"/>
</svg>
