<?xml version="1.0" standalone="no"?>
<!DOCTYPE svg PUBLIC "-//W3C//DTD SVG 20010904//EN"
 "http://www.w3.org/TR/2001/REC-SVG-20010904/DTD/svg10.dtd">
<svg version="1.0" xmlns="http://www.w3.org/2000/svg"
 width="700.000000pt" height="700.000000pt" viewBox="0 0 700.000000 700.000000"
 preserveAspectRatio="xMidYMid meet">
<metadata>
Created by potrace 1.14, written by Peter Selinger 2001-2017
</metadata>
<g transform="translate(0.000000,700.000000) scale(0.100000,-0.100000)"
fill="#000000" stroke="none">
<path d="M1851 4865 c-488 -74 -894 -367 -1090 -786 -146 -310 -160 -746 -37
-1074 69 -181 182 -350 327 -490 300 -288 702 -422 1176 -393 220 13 402 62
597 160 l99 50 111 -111 112 -111 209 2 210 3 3 235 2 235 -99 99 -99 98 44
82 c99 186 147 396 147 636 0 389 -125 694 -392 960 -206 206 -467 342 -756
395 -124 24 -439 29 -564 10z m1034 -481 c61 -33 123 -101 145 -161 19 -52 20
-79 20 -721 l0 -667 -28 -60 c-32 -67 -83 -117 -151 -149 -45 -21 -55 -21
-781 -21 l-735 0 -51 27 c-53 28 -112 87 -138 136 -33 64 -37 160 -34 788 l3
619 26 55 c37 78 71 114 141 150 l62 30 741 -2 c735 -3 740 -3 780 -24z"/>
<path d="M1322 4283 c-58 -28 -62 -47 -62 -299 l0 -226 34 -34 34 -34 246 0
c216 0 250 2 273 17 47 31 53 65 53 285 0 313 5 308 -325 308 -183 0 -226 -3
-253 -17z m448 -288 l0 -175 -190 0 -190 0 0 175 0 175 190 0 190 0 0 -175z"/>
<path d="M1536 4036 c-30 -29 -33 -52 -10 -84 10 -15 25 -22 48 -22 80 0 92
107 14 125 -21 5 -33 1 -52 -19z"/>
<path d="M2046 4279 c-26 -20 -26 -21 -26 -163 0 -163 8 -186 64 -186 59 0 66
18 66 183 0 145 0 146 -26 166 -15 12 -32 21 -39 21 -7 0 -24 -9 -39 -21z"/>
<path d="M2343 4285 c-64 -28 -68 -44 -68 -291 0 -175 3 -227 15 -248 27 -52
48 -56 311 -56 l241 0 34 34 34 34 0 231 c0 258 -3 271 -67 297 -46 20 -455
19 -500 -1z m437 -290 l0 -175 -185 0 -185 0 0 175 0 175 185 0 185 0 0 -175z"/>
<path d="M2556 4039 c-50 -40 -24 -109 42 -109 34 0 62 29 62 66 0 23 -42 64
-65 64 -7 0 -24 -9 -39 -21z"/>
<path d="M2045 3795 c-44 -43 -21 -105 39 -105 64 0 90 70 40 109 -34 27 -50
26 -79 -4z"/>
<path d="M1286 3559 c-49 -38 -23 -111 41 -111 31 0 63 33 63 67 0 24 -42 65
-65 65 -7 0 -24 -9 -39 -21z"/>
<path d="M1535 3555 c-29 -28 -31 -51 -9 -83 15 -21 21 -22 175 -22 146 0 161
2 179 20 27 27 25 56 -5 85 -23 24 -28 25 -170 25 -142 0 -147 -1 -170 -25z"/>
<path d="M2045 3555 c-14 -13 -25 -33 -25 -43 0 -31 33 -64 63 -64 64 0 90 73
41 111 -34 27 -50 26 -79 -4z"/>
<path d="M2312 3570 c-34 -14 -42 -49 -42 -180 0 -130 10 -167 47 -176 43 -11
71 3 84 44 16 56 8 277 -11 296 -21 20 -51 26 -78 16z"/>
<path d="M2556 3559 c-26 -20 -26 -20 -26 -168 0 -165 6 -181 68 -181 54 0 62
25 62 183 0 133 -1 139 -25 162 -29 30 -45 31 -79 4z"/>
<path d="M2806 3556 c-15 -14 -26 -34 -26 -44 0 -31 33 -64 63 -64 80 0 92
109 15 127 -21 5 -33 1 -52 -19z"/>
<path d="M1345 3332 c-31 -10 -50 -25 -68 -52 -15 -21 -17 -55 -17 -253 l0
-229 33 -33 c43 -43 75 -48 324 -43 289 5 283 -2 283 310 0 312 4 308 -320
307 -118 -1 -224 -4 -235 -7z m423 -299 l2 -173 -190 0 -190 0 0 175 0 175
188 -2 187 -3 3 -172z"/>
<path d="M1552 3090 c-54 -22 -51 -100 5 -121 22 -8 32 -6 52 9 43 32 41 90
-4 110 -14 7 -27 12 -28 11 -1 0 -12 -4 -25 -9z"/>
<path d="M2045 3315 c-14 -13 -25 -33 -25 -43 0 -31 33 -64 63 -64 64 0 90 73
41 111 -34 27 -50 26 -79 -4z"/>
<path d="M2822 3330 c-54 -22 -51 -100 5 -121 22 -8 32 -6 52 9 43 32 41 90
-4 110 -14 7 -27 12 -28 11 -1 0 -12 -4 -25 -9z"/>
<path d="M2045 3075 c-29 -28 -31 -51 -9 -83 l15 -22 413 0 c387 0 414 1 429
18 18 19 22 59 9 78 -21 31 -53 34 -442 34 l-391 0 -24 -25z"/>
<path d="M2062 2850 c-53 -22 -51 -97 3 -122 22 -10 30 -8 53 9 39 29 41 74 6
102 -30 23 -30 23 -62 11z"/>
<path d="M2314 2848 c-76 -36 -27 -148 51 -118 52 20 52 100 0 120 -15 6 -27
10 -28 9 -1 0 -12 -5 -23 -11z"/>
<path d="M2556 2839 c-32 -25 -35 -68 -5 -95 19 -17 38 -19 169 -19 131 0 150
2 169 19 12 11 21 31 21 45 -1 60 -30 71 -193 71 -121 0 -137 -2 -161 -21z"/>
<path d="M4030 3501 l0 -1341 310 0 310 0 0 370 0 370 275 0 c151 0 278 1 283
2 4 2 122 -165 262 -369 l255 -372 333 -1 c182 0 332 3 332 8 0 4 -132 196
-293 427 l-293 420 70 38 c327 178 498 495 472 875 -17 241 -90 421 -234 574
-147 156 -356 261 -617 310 -103 19 -156 21 -787 25 l-678 5 0 -1341z m1354
801 c188 -52 297 -167 327 -346 31 -186 -35 -363 -171 -459 -112 -78 -230 -97
-611 -97 l-279 0 0 466 0 466 328 -4 c296 -4 334 -7 406 -26z"/>
</g>
</svg>
