<svg version="1.1" xmlns="http://www.w3.org/2000/svg" width="429" height="64.27654109589041" viewBox="0 0 369.6202531645569 55.37974683544303" class="css-1j8o68f"><defs id="SvgjsDefs2147"></defs><g id="SvgjsG2148" featurekey="G09qjj-0" transform="matrix(0.6922468354430379,0,0,0.6922468354430379,-6.922468354430379,-6.922468354430379)" fill="#235784"><path xmlns="http://www.w3.org/2000/svg" d="M10,10v23.333h23.333V10H10z M26.667,26.667h-10v-10h10V26.667z"></path><path xmlns="http://www.w3.org/2000/svg" d="M10,66.666V90h23.333V66.666H10z M26.667,83.334h-10v-10h10V83.334z"></path><path xmlns="http://www.w3.org/2000/svg" d="M66.667,10v23.333H90V10H66.667z M83.333,26.667h-10v-10h10V26.667z"></path><polygon xmlns="http://www.w3.org/2000/svg" points="40,10 40,16.667 53.333,16.667 53.333,33.333 60,33.333 60,10 "></polygon><polygon xmlns="http://www.w3.org/2000/svg" points="46.667,83.334 46.667,66.666 40,66.666 40,90 53.333,90 53.333,83.334 "></polygon><rect xmlns="http://www.w3.org/2000/svg" x="83.333" y="40" width="6.667" height="13.334"></rect><polygon xmlns="http://www.w3.org/2000/svg" points="76.667,40 53.333,40 53.333,53.334 60,53.334 60,46.667 76.667,46.667 "></polygon><rect xmlns="http://www.w3.org/2000/svg" x="23.333" y="53.334" width="23.334" height="6.666"></rect><polygon xmlns="http://www.w3.org/2000/svg" points="40,23.333 40,40 10,40 10,60 16.667,60 16.667,46.667 46.667,46.667 46.667,23.333 "></polygon><path xmlns="http://www.w3.org/2000/svg" d="M73.333,56.666c-9.205,0-16.666,7.461-16.666,16.668C56.667,82.539,64.128,90,73.333,90C82.539,90,90,82.539,90,73.334  C90,64.127,82.539,56.666,73.333,56.666z M72.155,80.699l-8.838-8.84l3.535-3.535l5.303,5.303l7.659-7.66l3.535,3.535L72.155,80.699  z"></path></g><g id="SvgjsG2149" featurekey="0yvIkK-0" transform="matrix(3.484156358453146,0,0,3.484156358453146,72.28235564802624,-18.326654936047568)" fill="#235784"><path d="M8.4 17.04 l0.98 -1.2 l1.82 1.42 c1.02 -1.02 1.58 -2.6 1.58 -4.44 c0 -3.38 -1.88 -5.84 -5 -5.84 s-5 2.46 -5 5.84 s1.88 5.84 5 5.84 c0.8 0 1.52 -0.16 2.12 -0.46 z M14.66 19.96 l-0.98 1.16 l-2.2 -1.7 c-0.94 0.6 -2.18 0.96 -3.7 0.96 c-5.36 0 -7 -4.46 -7 -7.56 s1.64 -7.56 7 -7.56 s7 4.46 7 7.56 c0 1.82 -0.56 4.08 -2.08 5.62 z M19.26 13.84 l0 6.16 l-1.94 0 l0 -14.36 l6.64 0 c2.36 0 4.72 0.82 4.72 3.86 c0 2.12 -1.08 2.9 -2 3.44 c0.82 0.34 1.64 0.7 1.72 2.7 l0.12 2.6 c0.02 0.8 0.12 1.1 0.72 1.44 l0 0.32 l-2.38 0 c-0.28 -0.88 -0.34 -3.06 -0.34 -3.6 c0 -1.18 -0.24 -2.56 -2.56 -2.56 l-4.7 0 z M19.26 7.300000000000001 l0 4.88 l4.5 0 c1.42 0 2.92 -0.36 2.92 -2.48 c0 -2.22 -1.62 -2.4 -2.58 -2.4 l-4.84 0 z M35.78 13.559999999999999 l0 1.8 l-4.9 0 l0 -1.8 l4.9 0 z M51.879999999999995 20 l-1.88 0 l0 -8.48 c0 -0.42 0.04 -2.24 0.04 -3.58 l-0.04 0 l-4.04 12.06 l-1.92 0 l-4.04 -12.04 l-0.04 0 c0 1.32 0.04 3.14 0.04 3.56 l0 8.48 l-1.88 0 l0 -14.36 l2.78 0 l4.1 12.14 l0.04 0 l4.08 -12.14 l2.76 0 l0 14.36 z M61.739999999999995 16.72 l1.76 0 c-0.06 0.5 -0.54 1.98 -1.86 2.86 c-0.48 0.32 -1.16 0.72 -2.84 0.72 c-2.94 0 -4.68 -2.22 -4.68 -5.24 c0 -3.24 1.56 -5.82 5.02 -5.82 c3.02 0 4.5 2.4 4.5 6.1 l-7.64 0 c0 2.18 1.02 3.44 3.04 3.44 c1.66 0 2.64 -1.28 2.7 -2.06 z M55.99999999999999 13.940000000000001 l5.82 0 c-0.1 -1.62 -0.78 -3.12 -2.92 -3.12 c-1.62 0 -2.9 1.5 -2.9 3.12 z M74.25999999999999 12.879999999999999 l0 7.12 l-1.76 0 l0 -6.44 c0 -1.82 -0.52 -2.74 -2.24 -2.74 c-1 0 -2.76 0.64 -2.76 3.48 l0 5.7 l-1.76 0 l0 -10.46 l1.66 0 l0 1.48 l0.04 0 c0.38 -0.56 1.36 -1.78 3.16 -1.78 c1.62 0 3.66 0.66 3.66 3.64 z M85.34 20 l-1.66 0 l0 -1.52 l-0.04 -0.04 c-0.74 1.22 -1.64 1.86 -3.32 1.86 c-1.54 0 -3.4 -0.74 -3.4 -3.24 l0 -7.52 l1.76 0 l0 6.94 c0 1.72 0.88 2.3 2.02 2.3 c2.22 0 2.88 -1.96 2.88 -3.48 l0 -5.76 l1.76 0 l0 10.46 z"></path></g></svg>