<svg width="72" height="72" viewBox="0 0 72 72" fill="none" xmlns="http://www.w3.org/2000/svg">
<mask id="mask0_402_1881" style="mask-type:alpha" maskUnits="userSpaceOnUse" x="0" y="0" width="72" height="72">
<rect width="72" height="72" fill="#D9D9D9"/>
</mask>
<g mask="url(#mask0_402_1881)">
<path d="M59.3562 35.3294L29.4932 67.3254C29.1767 67.6632 28.759 67.8888 28.3031 67.9683C27.8471 68.0478 27.3777 67.9768 26.9656 67.7661C26.5535 67.5554 26.2211 67.2164 26.0186 66.8002C25.8161 66.384 25.7545 65.9133 25.843 65.459L29.7518 45.9068L14.3857 40.1368C14.0557 40.0134 13.7615 39.8101 13.5292 39.5452C13.2969 39.2802 13.1339 38.9619 13.0546 38.6186C12.9754 38.2753 12.9824 37.9177 13.0751 37.5777C13.1678 37.2378 13.3433 36.9262 13.5858 36.6706L43.4488 4.67456C43.7653 4.33683 44.183 4.1112 44.6389 4.0317C45.0949 3.95221 45.5643 4.02317 45.9764 4.23388C46.3885 4.44458 46.7209 4.7836 46.9234 5.19978C47.1259 5.61596 47.1875 6.08671 47.099 6.541L43.1795 26.1146L58.5456 31.8765C58.8732 32.0008 59.1651 32.2038 59.3956 32.4677C59.626 32.7316 59.788 33.0482 59.867 33.3895C59.9461 33.7308 59.9399 34.0863 59.8489 34.4247C59.758 34.763 59.585 35.0738 59.3455 35.3294H59.3562Z" fill="#FF7A00"/>
</g>
</svg>
