<svg width="72" height="72" viewBox="0 0 72 72" fill="none" xmlns="http://www.w3.org/2000/svg">
<mask id="mask0_402_1882" style="mask-type:alpha" maskUnits="userSpaceOnUse" x="0" y="0" width="72" height="72">
<rect width="72" height="72" fill="#D9D9D9"/>
</mask>
<g mask="url(#mask0_402_1882)">
<path d="M49.68 59.2L60.8 48.16L57.44 44.8L49.68 52.4L46.56 49.28L43.2 52.72L49.68 59.2ZM13.6 23.2H52V16.8H13.6V23.2ZM52 68C47.5733 68 43.7995 66.4395 40.6784 63.3184C37.5573 60.1973 35.9979 56.4245 36 52C36 47.5733 37.5605 43.7995 40.6816 40.6784C43.8027 37.5573 47.5755 35.9979 52 36C56.4267 36 60.2005 37.5605 63.3216 40.6816C66.4427 43.8027 68.0021 47.5755 68 52C68 56.4267 66.4395 60.2005 63.3184 63.3216C60.1973 66.4427 56.4245 68.0021 52 68ZM4 64.8V10.4C4 8.64001 4.6272 7.1328 5.8816 5.8784C7.136 4.624 8.64213 3.99787 10.4 4.00001H55.2C56.96 4.00001 58.4672 4.62721 59.7216 5.88161C60.976 7.13601 61.6021 8.64214 61.6 10.4V31.76C60.1067 31.0133 58.5461 30.4661 56.9184 30.1184C55.2907 29.7707 53.6512 29.5979 52 29.6H13.6V36H36.32C35.4133 36.9067 34.5739 37.8933 33.8016 38.96C33.0293 40.0267 32.3488 41.1733 31.76 42.4H13.6V48.8H29.84C29.7333 49.3333 29.6661 49.8539 29.6384 50.3616C29.6107 50.8693 29.5979 51.4155 29.6 52C29.6 54.24 29.9072 56.3872 30.5216 58.4416C31.136 60.496 32.0555 62.4555 33.28 64.32L32.8 64.8L28 60L23.2 64.8L18.4 60L13.6 64.8L8.8 60L4 64.8Z" fill="#FF7A00"/>
</g>
</svg>
