<svg width="72" height="72" viewBox="0 0 72 72" fill="none" xmlns="http://www.w3.org/2000/svg">
<mask id="mask0_402_1883" style="mask-type:alpha" maskUnits="userSpaceOnUse" x="0" y="0" width="72" height="72">
<rect width="72" height="72" fill="#D9D9D9"/>
</mask>
<g mask="url(#mask0_402_1883)">
<path d="M71.4 32.8C71.4 31.1026 70.7257 29.4748 69.5255 28.2745C68.3253 27.0743 66.6974 26.4 65 26.4H44.776L47.848 11.776C47.912 11.456 47.944 11.104 47.944 10.752C47.944 9.44 47.4 8.224 46.536 7.36L43.144 4L22.088 25.056C20.904 26.24 20.2 27.84 20.2 29.6V61.6C20.2 63.2974 20.8743 64.9253 22.0745 66.1255C23.2747 67.3257 24.9026 68 26.6 68H55.4C58.056 68 60.328 66.4 61.288 64.096L70.952 41.536C71.24 40.8 71.4 40.032 71.4 39.2V32.8ZM1 68H13.8V29.6H1V68Z" fill="#FF7A00"/>
</g>
</svg>
