<svg width="310" height="310" viewBox="0 0 310 310" fill="none" xmlns="http://www.w3.org/2000/svg">
<mask id="mask0_405_2182" style="mask-type:alpha" maskUnits="userSpaceOnUse" x="0" y="0" width="310" height="310">
<rect width="310" height="310" fill="#D9D9D9"/>
</mask>
<g mask="url(#mask0_405_2182)">
<mask id="mask1_405_2182" style="mask-type:luminance" maskUnits="userSpaceOnUse" x="21" y="20" width="269" height="269">
<path d="M290 154.5C290 80.2177 229.782 20 155.5 20C81.2177 20 21 80.2177 21 154.5C21 228.782 81.2177 289 155.5 289C229.782 289 290 228.782 290 154.5Z" fill="white"/>
</mask>
<g mask="url(#mask1_405_2182)">
<g filter="url(#filter0_d_405_2182)">
<path d="M155.5 289C229.782 289 290 228.782 290 154.5C290 80.2177 229.782 20 155.5 20C81.2177 20 21 80.2177 21 154.5C21 228.782 81.2177 289 155.5 289Z" fill="#242424"/>
</g>
<path d="M181.444 129.111H124.556V122H181.444V129.111ZM166.12 157.556H160.111V163.564C157.871 166.942 156.556 170.96 156.556 175.333C156.556 176.542 156.698 177.716 156.876 178.889H124.556V157.556H121V150.444L124.556 132.667H181.444L185 150.444V155.244C182.76 154.462 180.378 154 177.889 154C173.516 154 169.498 155.316 166.12 157.556ZM153 157.556H131.667V171.778H153V157.556ZM186.209 164.098L173.444 176.862L167.791 171.209L163.667 175.333L173.444 186L190.333 169.111L186.209 164.098Z" fill="#FF7A00"/>
</g>
<path d="M285.224 79.4099C287.066 78.3459 289.426 78.9749 290.443 80.8429C300.826 99.9079 307.062 120.952 308.742 142.593C308.906 144.713 307.27 146.526 305.146 146.637C303.022 146.748 301.215 145.116 301.048 142.996C299.435 122.568 293.549 102.705 283.771 84.6939C282.756 82.8249 283.382 80.4729 285.224 79.4099Z" fill="#D3D3D3"/>
<path d="M229.536 285.539C230.599 287.381 229.97 289.741 228.102 290.758C209.038 301.135 187.993 307.367 166.349 309.042C164.229 309.206 162.416 307.57 162.304 305.446C162.193 303.322 163.825 301.516 165.946 301.349C186.375 299.74 206.239 293.859 224.249 284.086C226.119 283.071 228.472 283.698 229.536 285.539Z" fill="#FF7A00"/>
<path d="M24.3568 79.6479C22.5158 78.5839 21.8798 76.2259 22.9888 74.4109C34.3088 55.8919 49.4157 39.9739 67.3197 27.7019C69.0737 26.4999 71.4618 27.0109 72.6198 28.7939C73.7788 30.5779 73.2678 32.9589 71.5148 34.1639C54.6298 45.7709 40.3697 60.7949 29.6617 78.2639C28.5497 80.0769 26.1988 80.7109 24.3568 79.6479Z" fill="#FF7A00"/>
</g>
<defs>
<filter id="filter0_d_405_2182" x="5" y="12" width="301" height="301" filterUnits="userSpaceOnUse" color-interpolation-filters="sRGB">
<feFlood flood-opacity="0" result="BackgroundImageFix"/>
<feColorMatrix in="SourceAlpha" type="matrix" values="0 0 0 0 0 0 0 0 0 0 0 0 0 0 0 0 0 0 127 0" result="hardAlpha"/>
<feOffset dy="8"/>
<feGaussianBlur stdDeviation="8"/>
<feComposite in2="hardAlpha" operator="out"/>
<feColorMatrix type="matrix" values="0 0 0 0 0.141176 0 0 0 0 0.141176 0 0 0 0 0.141176 0 0 0 0.25 0"/>
<feBlend mode="normal" in2="BackgroundImageFix" result="effect1_dropShadow_405_2182"/>
<feBlend mode="normal" in="SourceGraphic" in2="effect1_dropShadow_405_2182" result="shape"/>
</filter>
</defs>
</svg>
