<svg width="28" height="28" viewBox="0 0 28 28" fill="none" xmlns="http://www.w3.org/2000/svg">
<mask id="mask0_402_1945" style="mask-type:luminance" maskUnits="userSpaceOnUse" x="0" y="0" width="28" height="28">
<path d="M14 26C15.5762 26.002 17.1372 25.6926 18.5934 25.0894C20.0495 24.4862 21.3722 23.6012 22.4852 22.4852C23.6012 21.3722 24.4862 20.0495 25.0894 18.5934C25.6926 17.1372 26.002 15.5762 26 14C26.002 12.4238 25.6925 10.8628 25.0893 9.40666C24.4861 7.95049 23.6011 6.62787 22.4852 5.51481C21.3722 4.39882 20.0495 3.51381 18.5934 2.91062C17.1372 2.30743 15.5762 1.99797 14 2.00001C12.4238 1.998 10.8628 2.30748 9.40666 2.91067C7.95049 3.51385 6.62787 4.39885 5.51481 5.51481C4.39885 6.62787 3.51385 7.95049 2.91067 9.40666C2.30748 10.8628 1.998 12.4238 2.00001 14C1.99797 15.5762 2.30743 17.1372 2.91062 18.5934C3.51381 20.0495 4.39882 21.3722 5.51481 22.4852C6.62787 23.6011 7.95049 24.4861 9.40666 25.0893C10.8628 25.6925 12.4238 26.002 14 26Z" fill="white"/>
<path fill-rule="evenodd" clip-rule="evenodd" d="M14 8.62651e-06C15.8388 -0.00203534 17.6599 0.359162 19.3587 1.06287C21.0575 1.76656 22.6006 2.79887 23.8993 4.10052C25.201 5.3993 26.2334 6.94242 26.9371 8.64127C27.6408 10.3401 28.002 12.1612 28 14C28.002 15.8388 27.6408 17.6599 26.9371 19.3587C26.2334 21.0576 25.2011 22.6007 23.8994 23.8994C22.6007 25.2011 21.0576 26.2334 19.3587 26.9371C17.6599 27.6408 15.8388 28.002 14 28C12.1612 28.002 10.3401 27.6408 8.64127 26.9371C6.94246 26.2334 5.39937 25.2011 4.10061 23.8994C2.79891 22.6007 1.76657 21.0576 1.06287 19.3587C0.359159 17.6599 -0.00203865 15.8388 8.65462e-06 14C-0.00199382 12.1612 0.359218 10.3401 1.06292 8.64127C1.76661 6.94245 2.79893 5.39936 4.10059 4.10059C5.39936 2.79893 6.94245 1.76661 8.64127 1.06292C10.3401 0.359215 12.1612 -0.00199719 14 8.62651e-06ZM17.828 4.75837C16.6153 4.25603 15.3152 3.99831 14.0026 4.00001H13.9975C12.6848 3.99834 11.3848 4.25607 10.172 4.75842C8.95933 5.26076 7.85783 5.9978 6.93085 6.92718L6.92718 6.93085C5.9978 7.85783 5.26076 8.95933 4.75842 10.172C4.25607 11.3848 3.99834 12.6848 4.00001 13.9975V14.0026C3.99831 15.3152 4.25603 16.6153 4.75837 17.828C5.26071 19.0407 5.99776 20.1422 6.92715 21.0691L6.93086 21.0728C7.85783 22.0022 8.95933 22.7392 10.172 23.2416C11.3848 23.7439 12.6848 24.0017 13.9975 24H14.0026C15.3152 24.0017 16.6153 23.744 17.828 23.2416C19.0407 22.7393 20.1422 22.0022 21.0691 21.0728L21.0728 21.0691C22.0022 20.1422 22.7393 19.0407 23.2416 17.828C23.744 16.6153 24.0017 15.3152 24 14.0026V13.9975C24.0017 12.6848 23.7439 11.3848 23.2416 10.172C22.7392 8.95933 22.0022 7.85783 21.0728 6.93085L21.0691 6.92715C20.1422 5.99776 19.0407 5.26071 17.828 4.75837Z" fill="white"/>
<path fill-rule="evenodd" clip-rule="evenodd" d="M21.4134 8.98569C22.1945 9.76674 22.1945 11.0331 21.4134 11.8141L14.2134 19.0141C13.4324 19.7952 12.1661 19.7952 11.385 19.0141L7.78501 15.4141C7.00396 14.6331 7.00396 13.3667 7.78501 12.5857C8.56605 11.8046 9.83238 11.8046 10.6134 12.5857L12.7992 14.7715L18.585 8.98569C19.366 8.20464 20.6324 8.20464 21.4134 8.98569Z" fill="black"/>
</mask>
<g mask="url(#mask0_402_1945)">
<path d="M-0.400391 -0.399902H28.3996V28.4001H-0.400391V-0.399902Z" fill="#FF7A00"/>
</g>
</svg>
