<svg width="44" height="44" viewBox="0 0 44 44" fill="none" xmlns="http://www.w3.org/2000/svg">
<path d="M14.8056 1.20607C10.3576 2.74912 6.52162 5.67788 3.86117 9.56217C1.20071 13.4465 -0.144026 18.0815 0.0244831 22.7866C0.192992 27.4916 1.86586 32.0186 4.79738 35.7026C7.72889 39.3866 11.7645 42.0334 16.3115 43.2543C19.9979 44.2055 23.8601 44.2473 27.5661 43.3761C30.9234 42.6219 34.0274 41.0089 36.574 38.6948C39.2245 36.2127 41.1483 33.0552 42.1387 29.5617C43.2148 25.7626 43.4064 21.7674 42.6986 17.8828H21.9979V26.4698H33.9864C33.7468 27.8394 33.2334 29.1465 32.4768 30.313C31.7202 31.4796 30.7361 32.4814 29.5833 33.2587C28.1196 34.2275 26.4693 34.8791 24.7386 35.1716C23.0029 35.4944 21.2226 35.4944 19.4869 35.1716C17.7276 34.8083 16.0633 34.0822 14.6004 33.0396C12.2498 31.3757 10.4848 29.0119 9.55736 26.2855C8.61446 23.5079 8.61446 20.4969 9.55736 17.7193C10.2176 15.7724 11.309 13.9998 12.7501 12.5337C14.3993 10.8252 16.4873 9.60389 18.7849 9.00387C21.0825 8.40386 23.501 8.44829 25.775 9.13229C27.5515 9.67736 29.176 10.6302 30.5189 11.9146C31.8707 10.5698 33.2201 9.22156 34.5672 7.8698C35.2628 7.14291 36.021 6.4508 36.7061 5.70652C34.656 3.79894 32.2497 2.3145 29.6251 1.33823C24.8453 -0.397296 19.6155 -0.443936 14.8056 1.20607Z" fill="white"/>
<path d="M14.8056 1.20607C19.6151 -0.445058 24.845 -0.399645 29.6251 1.33475C32.2502 2.31766 34.6554 3.80924 36.7027 5.72391C36.0071 6.46819 35.2732 7.16378 34.5637 7.88719C33.2143 9.23431 31.866 10.5768 30.5189 11.9146C29.176 10.6302 27.5515 9.67736 25.775 9.13229C23.5017 8.44589 21.0833 8.39889 18.7851 8.99645C16.4869 9.59401 14.3977 10.813 12.7466 12.5198C11.3055 13.9859 10.2141 15.7585 9.55389 17.7054L2.34412 12.1233C4.92478 7.00574 9.39303 3.0912 14.8056 1.20607Z" fill="#E33629"/>
<path d="M0.431254 17.6532C0.818487 15.7326 1.46186 13.8727 2.34412 12.1233L9.55389 17.7193C8.61098 20.4969 8.61098 23.5079 9.55389 26.2855C7.15179 28.1404 4.74854 30.0046 2.34412 31.878C0.136154 27.483 -0.537238 22.4754 0.431254 17.6532Z" fill="#F8BD00"/>
<path d="M21.9979 17.8793H42.6986C43.4064 21.764 43.2148 25.7591 42.1387 29.5582C41.1483 33.0517 39.2245 36.2092 36.574 38.6913C34.2472 36.8758 31.9101 35.0742 29.5833 33.2587C30.7369 32.4807 31.7215 31.4777 32.4781 30.3099C33.2346 29.1422 33.7477 27.8337 33.9864 26.4629H21.9979C21.9945 23.604 21.9979 20.7416 21.9979 17.8793Z" fill="#587DBD"/>
<path d="M2.34064 31.878C4.74506 30.0231 7.14831 28.1589 9.55041 26.2855C10.4797 29.0129 12.2472 31.3768 14.6004 33.0396C16.0679 34.0773 17.7357 34.7975 19.4973 35.1542C21.233 35.477 23.0133 35.477 24.749 35.1542C26.4797 34.8617 28.13 34.2101 29.5938 33.2414C31.9205 35.0568 34.2577 36.8584 36.5844 38.6739C34.0382 40.9893 30.9342 42.6036 27.5766 43.3587C23.8705 44.2299 20.0083 44.1882 16.322 43.237C13.4064 42.4585 10.6831 41.0862 8.3227 39.206C5.82459 37.2223 3.78411 34.7227 2.34064 31.878Z" fill="#319F43"/>
</svg>
