<svg width="30" height="30" viewBox="0 0 30 30" fill="none" xmlns="http://www.w3.org/2000/svg">
<mask id="mask0_402_2104" style="mask-type:alpha" maskUnits="userSpaceOnUse" x="0" y="0" width="30" height="30">
<rect width="30" height="30" fill="white"/>
</mask>
<g mask="url(#mask0_402_2104)">
<path d="M26.8829 10.0837C26.8683 9.07651 26.682 8.07728 26.3254 7.13527C25.7014 5.52667 24.4308 4.25468 22.8222 3.632C21.8921 3.28207 20.9089 3.09447 19.9136 3.07318C18.6337 3.01597 18.2279 3 14.9787 3C11.7296 3 11.3131 3 10.0425 3.07318C9.04857 3.09447 8.06531 3.28207 7.13527 3.632C5.52667 4.25468 4.25468 5.52667 3.632 7.13527C3.28207 8.06531 3.09314 9.04856 3.07451 10.0425C3.0173 11.3238 3 11.7296 3 14.9787C3 18.2279 3 18.643 3.07451 19.915C3.09447 20.9102 3.28207 21.8921 3.632 22.8248C4.25602 24.4321 5.52667 25.7041 7.1366 26.3268C8.06265 26.6887 9.04591 26.8936 10.0438 26.9255C11.3251 26.9827 11.7309 27 14.98 27C18.2292 27 18.6456 27 19.9163 26.9255C20.9102 26.9055 21.8935 26.7179 22.8248 26.368C24.4334 25.744 25.7041 24.472 26.3281 22.8647C26.678 21.9334 26.8656 20.9514 26.8856 19.9549C26.9428 18.6749 26.9601 18.2691 26.9601 15.0186C26.9574 11.7695 26.9574 11.357 26.8829 10.0837ZM14.9707 21.1231C11.5726 21.1231 8.81971 18.3702 8.81971 14.9721C8.81971 11.5739 11.5726 8.82104 14.9707 8.82104C18.3662 8.82104 21.1217 11.5739 21.1217 14.9721C21.1217 18.3702 18.3662 21.1231 14.9707 21.1231ZM21.3666 10.0278C20.5722 10.0278 19.9323 9.38652 19.9323 8.59352C19.9323 7.80053 20.5722 7.15922 21.3666 7.15922C22.1582 7.15922 22.7995 7.80053 22.7995 8.59352C22.7995 9.38652 22.1582 10.0278 21.3666 10.0278Z" fill="#242424"/>
<path d="M14.9707 18.9677C17.1774 18.9677 18.9663 17.1788 18.9663 14.9721C18.9663 12.7654 17.1774 10.9766 14.9707 10.9766C12.764 10.9766 10.9752 12.7654 10.9752 14.9721C10.9752 17.1788 12.764 18.9677 14.9707 18.9677Z" fill="#242424"/>
</g>
</svg>
