<svg width="30" height="30" viewBox="0 0 30 30" fill="none" xmlns="http://www.w3.org/2000/svg">
<mask id="mask0_402_2109" style="mask-type:alpha" maskUnits="userSpaceOnUse" x="0" y="0" width="30" height="30">
<rect width="30" height="30" fill="white"/>
</mask>
<g mask="url(#mask0_402_2109)">
<path d="M27.865 4.97216C28.5029 3.20755 26.793 1.49756 25.0283 2.13696L3.46161 9.93672C1.69109 10.5776 1.47697 12.9934 3.10573 13.937L9.98996 17.9225L16.1373 11.7752C16.4158 11.5062 16.7888 11.3573 17.176 11.3607C17.5632 11.3641 17.9336 11.5194 18.2073 11.7932C18.4811 12.0669 18.6364 12.4373 18.6398 12.8245C18.6432 13.2117 18.4943 13.5847 18.2253 13.8632L12.078 20.0105L16.065 26.8948C17.0071 28.5235 19.4229 28.3079 20.0638 26.5389L27.865 4.97216Z" fill="#242424"/>
</g>
</svg>
