<svg width="30" height="30" viewBox="0 0 30 30" fill="none" xmlns="http://www.w3.org/2000/svg">
<mask id="mask0_402_2103" style="mask-type:alpha" maskUnits="userSpaceOnUse" x="0" y="0" width="30" height="30">
<rect width="30" height="30" fill="white"/>
</mask>
<g mask="url(#mask0_402_2103)">
<path d="M16.2 10.2C17.1547 10.2 18.0704 10.5793 18.7455 11.2544C19.4207 11.9295 19.7999 12.8452 19.7999 13.8C19.7999 14.1182 19.9264 14.4234 20.1514 14.6485C20.3765 14.8735 20.6817 15 20.9999 15C21.3182 15 21.6234 14.8735 21.8485 14.6485C22.0735 14.4234 22.1999 14.1182 22.1999 13.8C22.1999 12.2087 21.5678 10.6825 20.4426 9.55734C19.3174 8.43212 17.7912 7.79998 16.2 7.79998C15.8817 7.79998 15.5765 7.92641 15.3514 8.15145C15.1264 8.3765 15 8.68172 15 8.99998C15 9.31824 15.1264 9.62346 15.3514 9.8485C15.5765 10.0735 15.8817 10.2 16.2 10.2Z" fill="#242424"/>
<path d="M16.2 5.39999C18.4278 5.39999 20.5643 6.28499 22.1396 7.86028C23.7149 9.43558 24.5999 11.5721 24.5999 13.8C24.5999 14.1182 24.7263 14.4234 24.9514 14.6485C25.1764 14.8735 25.4817 15 25.7999 15C26.1182 15 26.4234 14.8735 26.6484 14.6485C26.8735 14.4234 26.9999 14.1182 26.9999 13.8C26.9999 10.9356 25.8621 8.18862 23.8367 6.16323C21.8113 4.13785 19.0643 3 16.2 3C15.8817 3 15.5765 3.12643 15.3514 3.35147C15.1264 3.57651 15 3.88174 15 4.2C15 4.51825 15.1264 4.82348 15.3514 5.04852C15.5765 5.27356 15.8817 5.39999 16.2 5.39999Z" fill="#242424"/>
<path d="M26.6999 19.692C26.6339 19.4994 26.52 19.3267 26.3688 19.1903C26.2177 19.0538 26.0343 18.9581 25.8359 18.912L18.6359 17.268C18.4405 17.2237 18.2371 17.2291 18.0442 17.2836C17.8514 17.3381 17.6753 17.44 17.5319 17.58C17.3639 17.736 17.3519 17.748 16.572 19.236C13.9838 18.0434 11.91 15.9611 10.728 13.368C12.252 12.6001 12.264 12.6001 12.42 12.4201C12.56 12.2767 12.6619 12.1006 12.7164 11.9078C12.7709 11.7149 12.7763 11.5115 12.732 11.3161L11.088 4.20008C11.0419 4.00172 10.9462 3.81833 10.8097 3.66718C10.6733 3.51603 10.5006 3.40209 10.308 3.33609C10.0277 3.23599 9.73835 3.16365 9.44398 3.12009C9.14068 3.04976 8.83118 3.00957 8.51998 3.00009C7.05599 3.00009 5.65196 3.58166 4.61676 4.61685C3.58157 5.65205 3 7.05608 3 8.52007C3.00635 13.4193 4.95538 18.1161 8.41966 21.5803C11.8839 25.0446 16.5807 26.9936 21.4799 27C22.2048 27 22.9226 26.8572 23.5923 26.5798C24.2621 26.3024 24.8706 25.8958 25.3831 25.3832C25.8957 24.8707 26.3023 24.2621 26.5797 23.5924C26.8571 22.9227 26.9999 22.2049 26.9999 21.48C27.0003 21.1746 26.9762 20.8696 26.9279 20.568C26.8775 20.27 26.8012 19.9769 26.6999 19.692Z" fill="#242424"/>
</g>
</svg>
