<svg width="30" height="30" viewBox="0 0 30 30" fill="none" xmlns="http://www.w3.org/2000/svg">
<mask id="mask0_402_2107" style="mask-type:alpha" maskUnits="userSpaceOnUse" x="0" y="0" width="30" height="30">
<rect width="30" height="30" fill="white"/>
</mask>
<g mask="url(#mask0_402_2107)">
<path d="M15.1429 21.2857C15.7491 21.2857 16.3304 21.0449 16.7591 20.6162C17.1878 20.1876 17.4286 19.6062 17.4286 19C17.4286 18.3938 17.1878 17.8124 16.7591 17.3838C16.3304 16.9551 15.7491 16.7143 15.1429 16.7143C14.5366 16.7143 13.9553 16.9551 13.5266 17.3838C13.098 17.8124 12.8571 18.3938 12.8571 19C12.8571 19.6062 13.098 20.1876 13.5266 20.6162C13.9553 21.0449 14.5366 21.2857 15.1429 21.2857ZM22 11C22.6062 11 23.1876 11.2408 23.6162 11.6695C24.0449 12.0981 24.2857 12.6795 24.2857 13.2857V24.7143C24.2857 25.3205 24.0449 25.9019 23.6162 26.3305C23.1876 26.7592 22.6062 27 22 27H8.28571C7.67951 27 7.09812 26.7592 6.66947 26.3305C6.24082 25.9019 6 25.3205 6 24.7143V13.2857C6 12.6795 6.24082 12.0981 6.66947 11.6695C7.09812 11.2408 7.67951 11 8.28571 11H9.42857V8.71429C9.42857 7.19876 10.0306 5.74531 11.1022 4.67368C12.1739 3.60204 13.6273 3 15.1429 3C15.8933 3 16.6363 3.1478 17.3296 3.43497C18.0229 3.72214 18.6528 4.14306 19.1835 4.67368C19.7141 5.2043 20.135 5.83423 20.4222 6.52752C20.7093 7.22081 20.8571 7.96388 20.8571 8.71429V11H22ZM15.1429 5.28571C14.2335 5.28571 13.3615 5.64694 12.7185 6.28992C12.0755 6.9329 11.7143 7.80497 11.7143 8.71429V11H18.5714V8.71429C18.5714 7.80497 18.2102 6.9329 17.5672 6.28992C16.9242 5.64694 16.0522 5.28571 15.1429 5.28571Z" fill="#242424"/>
</g>
</svg>
