<svg width="30" height="30" viewBox="0 0 30 30" fill="none" xmlns="http://www.w3.org/2000/svg">
<mask id="mask0_402_2110" style="mask-type:alpha" maskUnits="userSpaceOnUse" x="0" y="0" width="30" height="30">
<rect width="30" height="30" fill="white"/>
</mask>
<g mask="url(#mask0_402_2110)">
<path d="M20.8756 6.89607L25.1045 11.125C25.2827 11.3032 25.2827 11.5939 25.1045 11.772L14.865 22.0115L10.5142 22.4944C9.9328 22.5601 9.44052 22.0678 9.50615 21.4864L9.98906 17.1356L20.2286 6.89607C20.4067 6.71791 20.6974 6.71791 20.8756 6.89607ZM28.4708 5.82243L26.1828 3.53448C25.4702 2.82184 24.3122 2.82184 23.5948 3.53448L21.9351 5.19418C21.757 5.37234 21.757 5.66302 21.9351 5.84118L26.1641 10.0701C26.3423 10.2483 26.6329 10.2483 26.8111 10.0701L28.4708 8.41043C29.1834 7.6931 29.1834 6.53507 28.4708 5.82243ZM20.0035 19.2266V23.9994H5.00059V8.99648H15.7746C15.9246 8.99648 16.0652 8.93553 16.1731 8.83239L18.0484 6.95702C18.4048 6.6007 18.1516 5.9959 17.6499 5.9959H4.25044C3.00801 5.9959 2 7.00391 2 8.24634V24.7496C2 25.992 3.00801 27 4.25044 27H20.7537C21.9961 27 23.0041 25.992 23.0041 24.7496V17.3512C23.0041 16.8496 22.3993 16.6011 22.043 16.9527L20.1676 18.8281C20.0645 18.9359 20.0035 19.0766 20.0035 19.2266Z" fill="#242424"/>
</g>
</svg>
