<svg width="20" height="20" viewBox="0 0 20 20" fill="none" xmlns="http://www.w3.org/2000/svg">
<mask id="mask0_402_1762" style="mask-type:alpha" maskUnits="userSpaceOnUse" x="0" y="0" width="20" height="20">
<rect width="20" height="20" fill="#D9D9D9"/>
</mask>
<g mask="url(#mask0_402_1762)">
<path d="M18.1 10.5L19.5 11.91L12.97 18.5L9.5 15L10.9 13.59L12.97 15.67L18.1 10.5ZM7 15L10 18H0V16C0 13.79 3.58 12 8 12L9.89 12.11L7 15ZM8 2C9.06087 2 10.0783 2.42143 10.8284 3.17157C11.5786 3.92172 12 4.93913 12 6C12 7.06087 11.5786 8.07828 10.8284 8.82843C10.0783 9.57857 9.06087 10 8 10C6.93913 10 5.92172 9.57857 5.17157 8.82843C4.42143 8.07828 4 7.06087 4 6C4 4.93913 4.42143 3.92172 5.17157 3.17157C5.92172 2.42143 6.93913 2 8 2Z" fill="white"/>
</g>
</svg>
