<svg width="30" height="30" viewBox="0 0 30 30" fill="none" xmlns="http://www.w3.org/2000/svg">
<mask id="mask0_402_2105" style="mask-type:alpha" maskUnits="userSpaceOnUse" x="0" y="0" width="30" height="30">
<rect width="30" height="30" fill="white"/>
</mask>
<g mask="url(#mask0_402_2105)">
<path d="M3.02049 13.3426C10.7991 9.95299 15.9849 7.72224 18.5778 6.63583C25.9943 3.55044 27.5298 3.01449 28.5293 3C28.7465 3 29.239 3.05794 29.5577 3.30419C29.8185 3.52147 29.9054 3.82567 29.9343 4.02846C29.9633 4.23126 30.0068 4.70928 29.9778 5.07141C29.5722 9.28666 27.834 19.5278 26.9504 24.2501C26.5737 26.249 25.835 26.9154 25.1252 26.9878C23.5753 27.1327 22.4019 25.9593 20.8955 24.9743C18.5488 23.4389 17.2162 22.4828 14.942 20.9764C12.3056 19.2381 14.0149 18.2821 15.5214 16.7321C15.9125 16.3266 22.7351 10.1123 22.8655 9.5474C22.88 9.47497 22.8944 9.21423 22.7351 9.06938C22.5758 8.92452 22.3585 8.98246 22.1847 9.01143C21.9529 9.06938 18.2012 11.5464 10.9295 16.4424C9.87208 17.1667 8.90156 17.5288 8.03244 17.5144C7.0764 17.4999 5.25124 16.9784 3.88962 16.5294C2.2238 15.9934 0.891143 15.7037 1.00703 14.7766C1.06497 14.2986 1.7313 13.8061 2.99152 13.2991L3.02049 13.3426Z" fill="#242424"/>
</g>
</svg>
