<svg width="109" height="32" viewBox="0 0 109 32" fill="none" xmlns="http://www.w3.org/2000/svg">
<path d="M17.0194 32C14.5902 32 12.3239 31.6022 10.2205 30.8066C8.1468 30.0111 6.33969 28.8913 4.7992 27.4475C3.28834 26.0037 2.10335 24.3094 1.24424 22.3646C0.414746 20.4199 0 18.2983 0 16C0 13.7017 0.414746 11.5801 1.24424 9.63536C2.10335 7.69061 3.30316 5.99632 4.84364 4.55249C6.38413 3.10865 8.19123 1.98895 10.265 1.19337C12.3387 0.397789 14.5902 0 17.0194 0C19.4783 0 21.7297 0.397789 23.7738 1.19337C25.8476 1.98895 27.6399 3.10865 29.1507 4.55249C30.6912 5.96685 31.891 7.64641 32.7501 9.59116C33.6092 11.5359 34.0388 13.6722 34.0388 16C34.0388 18.2983 33.6092 20.4346 32.7501 22.4088C32.4598 23.066 32.1306 23.6946 31.7625 24.2946C31.3451 24.9748 30.8777 25.6183 30.3603 26.225C29.9836 26.6667 29.5804 27.089 29.1507 27.4917C28.8458 27.7772 28.5294 28.05 28.2015 28.3103C27.6835 28.7215 27.1369 29.1012 26.5617 29.4494C25.697 29.9729 24.7678 30.4253 23.7738 30.8066C21.7297 31.6022 19.4783 32 17.0194 32Z" fill="#FF7A00"/>
<path d="M39.449 31.4696V0.530385H52.9134C55.6982 0.530385 58.0978 0.987107 60.1123 1.90055C62.1267 2.78453 63.682 4.0663 64.7781 5.74586C65.8743 7.42541 66.4223 9.4291 66.4223 11.7569C66.4223 14.0552 65.8743 16.0442 64.7781 17.7238C63.682 19.3738 62.1267 20.6409 60.1123 21.5249C58.0978 22.4088 55.6982 22.8508 52.9134 22.8508H43.4484L46.6478 19.7127V31.4696H39.449ZM59.2235 31.4696L51.447 20.2431H59.1346L67 31.4696H59.2235ZM46.6478 20.5083L43.4484 17.1492H52.5135C54.7354 17.1492 56.3944 16.6777 57.4905 15.7348C58.5866 14.7624 59.1346 13.4365 59.1346 11.7569C59.1346 10.0479 58.5866 8.72192 57.4905 7.77901C56.3944 6.8361 54.7354 6.36464 52.5135 6.36464H43.4484L46.6478 2.96132V20.5083Z" fill="#FF7A00"/>
<path d="M30.3603 26.225C29.9836 26.6667 29.5804 27.089 29.1507 27.4917C28.8458 27.7772 28.5294 28.05 28.2015 28.3103C27.6835 28.7215 27.1369 29.1012 26.5617 29.4494L29.126 32H34.0388V26.5587L31.7625 24.2946C31.3451 24.9748 30.8777 25.6183 30.3603 26.225Z" fill="#FF7A00"/>
<rect x="6" y="5" width="22" height="21" rx="4" fill="#242424"/>
<path d="M19.9933 16.4948V19.3263M16.995 8V10.8316M22.9917 16.4948V19.3263M16.995 22.1579H25.99M22.9917 24.9895H25.99M10.9983 16.4948H13.9967M10.9983 10.8421L11.0083 10.8316M16.995 16.5052L17.005 16.4948M8 16.5052L8.00999 16.4948M16.995 13.6737L17.005 13.6632M16.995 19.3368L17.005 19.3263M19.9933 25L20.0033 24.9895M16.995 25L17.005 24.9895M25.99 16.5052L26 16.4948M25.99 19.3368L26 19.3263M22.9917 10.8421L23.0017 10.8316M10.9983 22.1684L11.0083 22.1579M13.9967 8.56632V13.0969C13.9967 13.4096 13.7282 13.6632 13.397 13.6632H8.59967C8.26848 13.6632 8 13.4096 8 13.0969V8.56632C8 8.25355 8.26848 8 8.59967 8H13.397C13.7282 8 13.9967 8.25355 13.9967 8.56632ZM25.99 8.56632V13.0969C25.99 13.4096 25.7216 13.6632 25.3903 13.6632H20.593C20.2618 13.6632 19.9933 13.4096 19.9933 13.0969V8.56632C19.9933 8.25355 20.2618 8 20.593 8H25.3903C25.7216 8 25.99 8.25355 25.99 8.56632ZM13.9967 19.8927V24.4232C13.9967 24.736 13.7282 24.9895 13.397 24.9895H8.59967C8.26848 24.9895 8 24.736 8 24.4232V19.8927C8 19.5799 8.26848 19.3263 8.59967 19.3263H13.397C13.7282 19.3263 13.9967 19.5799 13.9967 19.8927Z" stroke="#FF7A00" stroke-linecap="round" stroke-linejoin="round"/>
<rect x="71.1543" y="2.87695" width="37" height="16" rx="3" fill="#FF7A00"/>
<path d="M77.5082 7.49378H78.7962L80.6927 12.9145L82.5892 7.49378H83.8772L81.2099 14.877H80.1755L77.5082 7.49378ZM76.8135 7.49378H78.0964L78.3297 12.7776V14.877H76.8135V7.49378ZM83.289 7.49378H84.577V14.877H83.0557V12.7776L83.289 7.49378ZM88.3446 14.9784C87.9187 14.9784 87.5367 14.9108 87.1986 14.7755C86.8606 14.6369 86.5732 14.4459 86.3366 14.2025C86.1033 13.9591 85.9241 13.6769 85.7991 13.3557C85.674 13.0312 85.6114 12.6863 85.6114 12.3212V12.1184C85.6114 11.7026 85.6706 11.3223 85.7889 10.9775C85.9072 10.6326 86.0763 10.3335 86.296 10.0799C86.5191 9.82638 86.7896 9.632 87.1073 9.49677C87.4251 9.35817 87.7835 9.28887 88.1824 9.28887C88.5711 9.28887 88.916 9.3531 89.2168 9.48156C89.5177 9.61002 89.7695 9.79257 89.9724 10.0292C90.1786 10.2659 90.3341 10.5498 90.4389 10.8811C90.5437 11.209 90.5961 11.5741 90.5961 11.9764V12.5849H86.2352V11.6113H89.161V11.4998C89.161 11.2969 89.1239 11.1161 89.0495 10.9572C88.9785 10.7949 88.8703 10.6665 88.725 10.5718C88.5796 10.4771 88.3937 10.4298 88.1672 10.4298C87.9745 10.4298 87.8088 10.4721 87.6702 10.5566C87.5316 10.6411 87.4184 10.7594 87.3305 10.9115C87.246 11.0637 87.1817 11.2428 87.1378 11.4491C87.0972 11.6519 87.0769 11.875 87.0769 12.1184V12.3212C87.0769 12.541 87.1073 12.7438 87.1682 12.9297C87.2324 13.1157 87.322 13.2763 87.437 13.4115C87.5553 13.5467 87.6973 13.6515 87.8629 13.7259C88.0319 13.8002 88.2229 13.8374 88.4359 13.8374C88.6996 13.8374 88.9447 13.7867 89.1712 13.6853C89.4011 13.5805 89.5988 13.4233 89.7645 13.2137L90.4744 13.9845C90.3595 14.1501 90.2023 14.309 90.0028 14.4611C89.8067 14.6133 89.5701 14.7383 89.2929 14.8364C89.0157 14.931 88.6996 14.9784 88.3446 14.9784ZM92.8577 10.5617V14.877H91.3973V9.39029H92.7664L92.8577 10.5617ZM92.6447 11.9409H92.2492C92.2492 11.5353 92.3016 11.1702 92.4064 10.8456C92.5112 10.5177 92.6582 10.2388 92.8476 10.0089C93.0369 9.77567 93.2617 9.59819 93.522 9.47649C93.7857 9.35141 94.0798 9.28887 94.4043 9.28887C94.6612 9.28887 94.8962 9.32605 95.1092 9.40043C95.3221 9.4748 95.5047 9.59312 95.6568 9.75539C95.8123 9.91765 95.9306 10.1323 96.0118 10.3994C96.0963 10.6665 96.1385 10.9927 96.1385 11.3781V14.877H94.668V11.373C94.668 11.1296 94.6342 10.9403 94.5666 10.8051C94.499 10.6698 94.3992 10.5752 94.2674 10.5211C94.1389 10.4636 93.9801 10.4349 93.7907 10.4349C93.5947 10.4349 93.4239 10.4738 93.2786 10.5515C93.1366 10.6293 93.0183 10.7374 92.9236 10.876C92.8323 11.0113 92.763 11.1702 92.7157 11.3527C92.6684 11.5353 92.6447 11.7313 92.6447 11.9409ZM100.494 13.5636V9.39029H101.955V14.877H100.581L100.494 13.5636ZM100.657 12.4379L101.088 12.4277C101.088 12.7928 101.045 13.1326 100.961 13.447C100.876 13.758 100.75 14.0284 100.581 14.2583C100.412 14.4848 100.199 14.6623 99.9417 14.7907C99.6848 14.9158 99.3822 14.9784 99.034 14.9784C98.7669 14.9784 98.5202 14.9412 98.2937 14.8668C98.0705 14.7891 97.8779 14.669 97.7156 14.5068C97.5567 14.3411 97.4316 14.1298 97.3403 13.8729C97.2524 13.6126 97.2085 13.2999 97.2085 12.9348V9.39029H98.6689V12.945C98.6689 13.1072 98.6875 13.2441 98.7247 13.3557C98.7653 13.4673 98.821 13.5585 98.892 13.6295C98.963 13.7005 99.0458 13.7512 99.1405 13.7816C99.2385 13.8121 99.3467 13.8273 99.465 13.8273C99.7659 13.8273 100.003 13.7664 100.175 13.6447C100.351 13.523 100.474 13.3574 100.545 13.1478C100.619 12.9348 100.657 12.6982 100.657 12.4379Z" fill="#242424"/>
<path d="M83.8611 24.4183V24.6632C83.8611 25.056 83.8078 25.4086 83.7013 25.721C83.5948 26.0333 83.4446 26.2995 83.2505 26.5196C83.0565 26.7373 82.8246 26.9042 82.5548 27.0201C82.2874 27.1361 81.9904 27.194 81.6639 27.194C81.3397 27.194 81.0427 27.1361 80.7729 27.0201C80.5055 26.9042 80.2736 26.7373 80.0772 26.5196C79.8808 26.2995 79.7281 26.0333 79.6193 25.721C79.5128 25.4086 79.4596 25.056 79.4596 24.6632V24.4183C79.4596 24.0231 79.5128 23.6705 79.6193 23.3605C79.7258 23.0481 79.876 22.7819 80.0701 22.5618C80.2665 22.3417 80.4984 22.1737 80.7658 22.0578C81.0356 21.9418 81.3326 21.8838 81.6568 21.8838C81.9833 21.8838 82.2803 21.9418 82.5477 22.0578C82.8175 22.1737 83.0494 22.3417 83.2434 22.5618C83.4398 22.7819 83.5913 23.0481 83.6978 23.3605C83.8066 23.6705 83.8611 24.0231 83.8611 24.4183ZM82.7855 24.6632V24.4112C82.7855 24.1366 82.7607 23.8953 82.711 23.687C82.6613 23.4788 82.5879 23.3037 82.4909 23.1617C82.3939 23.0197 82.2756 22.9132 82.136 22.8422C81.9963 22.7689 81.8366 22.7322 81.6568 22.7322C81.4769 22.7322 81.3172 22.7689 81.1776 22.8422C81.0403 22.9132 80.9232 23.0197 80.8262 23.1617C80.7315 23.3037 80.6593 23.4788 80.6096 23.687C80.5599 23.8953 80.5351 24.1366 80.5351 24.4112V24.6632C80.5351 24.9353 80.5599 25.1767 80.6096 25.3873C80.6593 25.5955 80.7327 25.7718 80.8297 25.9162C80.9267 26.0582 81.0451 26.1658 81.1847 26.2392C81.3243 26.3126 81.484 26.3492 81.6639 26.3492C81.8437 26.3492 82.0034 26.3126 82.1431 26.2392C82.2827 26.1658 82.3998 26.0582 82.4945 25.9162C82.5891 25.7718 82.6613 25.5955 82.711 25.3873C82.7607 25.1767 82.7855 24.9353 82.7855 24.6632ZM85.5649 24.1023V27.123H84.5426V23.2824H85.501L85.5649 24.1023ZM85.4158 25.0678H85.1389C85.1389 24.7839 85.1756 24.5283 85.249 24.3011C85.3223 24.0716 85.4253 23.8763 85.5578 23.7154C85.6903 23.5521 85.8477 23.4279 86.0299 23.3427C86.2145 23.2552 86.4203 23.2114 86.6475 23.2114C86.8273 23.2114 86.9918 23.2374 87.1409 23.2895C87.29 23.3415 87.4178 23.4244 87.5243 23.538C87.6331 23.6515 87.7159 23.8018 87.7727 23.9887C87.8319 24.1757 87.8615 24.4041 87.8615 24.6738V27.123H86.8321V24.6703C86.8321 24.4999 86.8084 24.3674 86.7611 24.2727C86.7138 24.1781 86.644 24.1118 86.5517 24.0739C86.4617 24.0337 86.3505 24.0136 86.218 24.0136C86.0807 24.0136 85.9612 24.0408 85.8595 24.0952C85.7601 24.1497 85.6773 24.2254 85.611 24.3224C85.5471 24.4171 85.4986 24.5283 85.4655 24.6561C85.4324 24.7839 85.4158 24.9211 85.4158 25.0678ZM89.7179 21.6709V27.123H88.6921V21.6709H89.7179ZM91.6418 23.2824V27.123H90.616V23.2824H91.6418ZM90.5521 22.2814C90.5521 22.1323 90.6041 22.0093 90.7082 21.9122C90.8124 21.8152 90.952 21.7667 91.1271 21.7667C91.2998 21.7667 91.4383 21.8152 91.5424 21.9122C91.6489 22.0093 91.7021 22.1323 91.7021 22.2814C91.7021 22.4305 91.6489 22.5535 91.5424 22.6506C91.4383 22.7476 91.2998 22.7961 91.1271 22.7961C90.952 22.7961 90.8124 22.7476 90.7082 22.6506C90.6041 22.5535 90.5521 22.4305 90.5521 22.2814ZM93.4876 24.1023V27.123H92.4653V23.2824H93.4237L93.4876 24.1023ZM93.3385 25.0678H93.0616C93.0616 24.7839 93.0983 24.5283 93.1717 24.3011C93.245 24.0716 93.348 23.8763 93.4805 23.7154C93.613 23.5521 93.7704 23.4279 93.9526 23.3427C94.1372 23.2552 94.343 23.2114 94.5702 23.2114C94.7501 23.2114 94.9145 23.2374 95.0636 23.2895C95.2127 23.3415 95.3405 23.4244 95.447 23.538C95.5558 23.6515 95.6386 23.8018 95.6954 23.9887C95.7546 24.1757 95.7842 24.4041 95.7842 24.6738V27.123H94.7548V24.6703C94.7548 24.4999 94.7311 24.3674 94.6838 24.2727C94.6365 24.1781 94.5667 24.1118 94.4744 24.0739C94.3844 24.0337 94.2732 24.0136 94.1407 24.0136C94.0035 24.0136 93.884 24.0408 93.7822 24.0952C93.6828 24.1497 93.6 24.2254 93.5337 24.3224C93.4698 24.4171 93.4213 24.5283 93.3882 24.6561C93.3551 24.7839 93.3385 24.9211 93.3385 25.0678ZM98.3292 27.194C98.0311 27.194 97.7637 27.1467 97.527 27.0521C97.2904 26.955 97.0892 26.8213 96.9236 26.651C96.7603 26.4806 96.6349 26.283 96.5473 26.0582C96.4598 25.831 96.416 25.5896 96.416 25.334V25.1921C96.416 24.901 96.4574 24.6348 96.5402 24.3934C96.6231 24.152 96.7414 23.9426 96.8952 23.7651C97.0514 23.5876 97.2407 23.4516 97.4631 23.3569C97.6856 23.2599 97.9364 23.2114 98.2156 23.2114C98.4878 23.2114 98.7292 23.2563 98.9398 23.3463C99.1504 23.4362 99.3267 23.564 99.4687 23.7296C99.613 23.8953 99.7219 24.0941 99.7952 24.326C99.8686 24.5555 99.9053 24.8111 99.9053 25.0927V25.5186H96.8526V24.8371H98.9007V24.759C98.9007 24.617 98.8747 24.4904 98.8226 24.3792C98.7729 24.2656 98.6972 24.1757 98.5955 24.1094C98.4937 24.0432 98.3635 24.01 98.205 24.01C98.0701 24.01 97.9542 24.0396 97.8571 24.0988C97.7601 24.1579 97.6808 24.2408 97.6193 24.3473C97.5602 24.4537 97.5152 24.5792 97.4844 24.7235C97.456 24.8655 97.4418 25.0217 97.4418 25.1921V25.334C97.4418 25.4879 97.4631 25.6298 97.5057 25.76C97.5507 25.8902 97.6134 26.0026 97.6939 26.0972C97.7767 26.1919 97.8761 26.2652 97.992 26.3173C98.1103 26.3693 98.244 26.3954 98.3931 26.3954C98.5777 26.3954 98.7493 26.3599 98.9078 26.2889C99.0687 26.2155 99.2072 26.1055 99.3231 25.9588L99.8201 26.4983C99.7396 26.6143 99.6296 26.7255 99.49 26.832C99.3527 26.9385 99.1871 27.026 98.993 27.0947C98.799 27.1609 98.5777 27.194 98.3292 27.194Z" fill="#FF7A00"/>
</svg>
