<svg width="189" height="57" viewBox="0 0 189 57" fill="none" xmlns="http://www.w3.org/2000/svg">
<path d="M29.6565 56.0609C25.4236 56.0609 21.4745 55.364 17.8094 53.9702C14.1959 52.5765 11.047 50.6148 8.36268 48.0854C5.72998 45.5559 3.66512 42.5877 2.1681 39.1807C0.722701 35.7737 0 32.0569 0 28.0305C0 24.004 0.722701 20.2872 2.1681 16.8802C3.66512 13.4732 5.75579 10.505 8.44011 7.97552C11.1244 5.44606 14.2733 3.48445 17.8868 2.09067C21.5003 0.696888 25.4236 0 29.6565 0C33.9411 0 37.8643 0.696888 41.4262 2.09067C45.0397 3.48445 48.1628 5.44606 50.7955 7.97552C53.4798 10.4533 55.5705 13.3958 57.0675 16.8028C58.5646 20.2098 59.3131 23.9524 59.3131 28.0305C59.3131 32.0569 58.5646 35.7995 57.0675 39.2581C56.5617 40.4094 55.988 41.5107 55.3465 42.5618C54.6192 43.7535 53.8048 44.8808 52.9033 45.9437C52.2469 46.7175 51.5443 47.4572 50.7955 48.1628C50.2642 48.6629 49.7129 49.1409 49.1416 49.5969C48.2389 50.3172 47.2864 50.9825 46.2841 51.5926C44.7774 52.5097 43.1582 53.3022 41.4262 53.9702C37.8643 55.364 33.9411 56.0609 29.6565 56.0609Z" fill="#242424"/>
<path d="M68.7404 55.1317V0.929184H92.2024C97.0548 0.929184 101.236 1.72932 104.746 3.32958C108.257 4.87823 110.967 7.12376 112.877 10.0662C114.787 13.0086 115.742 16.5189 115.742 20.597C115.742 24.6234 114.787 28.1079 112.877 31.0503C110.967 33.9411 108.257 36.1608 104.746 37.7095C101.236 39.2581 97.0548 40.0324 92.2024 40.0324H75.7093L81.2844 34.5348V55.1317H68.7404ZM103.198 55.1317L89.6471 35.4639H103.043L116.748 55.1317H103.198ZM81.2844 35.9285L75.7093 30.0437H91.5055C95.3771 30.0437 98.2679 29.2178 100.178 27.5659C102.088 25.8624 103.043 23.5394 103.043 20.597C103.043 17.6029 102.088 15.28 100.178 13.6281C98.2679 11.9762 95.3771 11.1502 91.5055 11.1502H75.7093L81.2844 5.18796V35.9285Z" fill="#242424"/>
<path d="M52.9033 45.9437C52.2469 46.7175 51.5443 47.4572 50.7955 48.1628C50.2642 48.6629 49.7129 49.1409 49.1416 49.5969C48.2389 50.3172 47.2864 50.9825 46.2841 51.5926L50.7524 56.0609H59.3131V46.5283L55.3465 42.5618C54.6192 43.7535 53.8048 44.8808 52.9033 45.9437Z" fill="#242424"/>
<rect x="9.97266" y="9.40378" width="39.0085" height="36.8917" rx="6.21374" fill="white"/>
<path d="M34.4661 27.7735V32.6475M29.3125 13.1516V18.0256M39.6198 27.7735V32.6475M29.3125 37.5215H44.7734M39.6198 42.3955H44.7734M19.0052 27.7735H24.1588M19.0052 18.0436L19.0224 18.0256M29.3125 27.7916L29.3297 27.7735M13.8516 27.7916L13.8687 27.7735M29.3125 22.9176L29.3297 22.8996M29.3125 32.6656L29.3297 32.6475M34.4661 42.4135L34.4833 42.3955M29.3125 42.4135L29.3297 42.3955M44.7734 27.7916L44.7906 27.7735M44.7734 32.6656L44.7906 32.6475M39.6198 18.0436L39.6369 18.0256M19.0052 37.5395L19.0224 37.5215M24.1588 14.1264V21.9248C24.1588 22.4631 23.6974 22.8996 23.1281 22.8996H14.8823C14.313 22.8996 13.8516 22.4631 13.8516 21.9248V14.1264C13.8516 13.588 14.313 13.1516 14.8823 13.1516H23.1281C23.6974 13.1516 24.1588 13.588 24.1588 14.1264ZM44.7734 14.1264V21.9248C44.7734 22.4631 44.312 22.8996 43.7427 22.8996H35.4969C34.9275 22.8996 34.4661 22.4631 34.4661 21.9248V14.1264C34.4661 13.588 34.9275 13.1516 35.4969 13.1516H43.7427C44.312 13.1516 44.7734 13.588 44.7734 14.1264ZM24.1588 33.6223V41.4207C24.1588 41.9591 23.6974 42.3955 23.1281 42.3955H14.8823C14.313 42.3955 13.8516 41.9591 13.8516 41.4207V33.6223C13.8516 33.0839 14.313 32.6475 14.8823 32.6475H23.1281C23.6974 32.6475 24.1588 33.0839 24.1588 33.6223Z" stroke="#242424" stroke-width="2.57682" stroke-linecap="round" stroke-linejoin="round"/>
<rect x="123.982" y="5.32858" width="64.0842" height="28.2337" rx="5.78693" fill="#FF7A00"/>
<path d="M135.383 13.0887H137.626L140.928 22.5282L144.231 13.0887H146.474L141.829 25.9454H140.028L135.383 13.0887ZM134.173 13.0887H136.407L136.814 22.2897V25.9454H134.173V13.0887ZM145.449 13.0887H147.692V25.9454H145.043V22.2897L145.449 13.0887ZM154.253 26.122C153.511 26.122 152.846 26.0043 152.257 25.7688C151.669 25.5275 151.168 25.1949 150.756 24.771C150.35 24.3472 150.038 23.8556 149.82 23.2964C149.603 22.7313 149.494 22.1308 149.494 21.495V21.1418C149.494 20.4178 149.597 19.7555 149.803 19.155C150.009 18.5546 150.303 18.0336 150.686 17.5921C151.074 17.1506 151.545 16.8121 152.099 16.5766C152.652 16.3353 153.276 16.2146 153.971 16.2146C154.648 16.2146 155.248 16.3264 155.772 16.5501C156.296 16.7738 156.734 17.0917 157.088 17.5038C157.447 17.9159 157.717 18.4104 157.9 18.9873C158.082 19.5583 158.174 20.1941 158.174 20.8946V21.9542H150.58V20.2588H155.675V20.0645C155.675 19.7113 155.61 19.3964 155.48 19.1197C155.357 18.8372 155.168 18.6135 154.915 18.4486C154.662 18.2838 154.338 18.2014 153.944 18.2014C153.608 18.2014 153.32 18.275 153.079 18.4221C152.837 18.5693 152.64 18.7753 152.487 19.0403C152.34 19.3052 152.228 19.6172 152.152 19.9762C152.081 20.3295 152.046 20.718 152.046 21.1418V21.495C152.046 21.8777 152.099 22.2309 152.204 22.5547C152.316 22.8784 152.472 23.158 152.672 23.3935C152.879 23.629 153.126 23.8115 153.414 23.941C153.709 24.0705 154.041 24.1353 154.412 24.1353C154.871 24.1353 155.298 24.047 155.692 23.8703C156.093 23.6879 156.437 23.4141 156.726 23.0491L157.962 24.3913C157.762 24.6798 157.488 24.9565 157.141 25.2214C156.799 25.4863 156.387 25.7041 155.904 25.8748C155.422 26.0396 154.871 26.122 154.253 26.122ZM162.112 18.431V25.9454H159.569V16.3912H161.953L162.112 18.431ZM161.741 20.8328H161.052C161.052 20.1264 161.144 19.4906 161.326 18.9255C161.509 18.3544 161.765 17.8688 162.094 17.4685C162.424 17.0623 162.815 16.7532 163.269 16.5413C163.728 16.3235 164.24 16.2146 164.805 16.2146C165.253 16.2146 165.662 16.2794 166.033 16.4089C166.403 16.5384 166.721 16.7444 166.986 17.027C167.257 17.3095 167.463 17.6833 167.604 18.1484C167.751 18.6135 167.825 19.1815 167.825 19.8526V25.9454H165.264V19.8438C165.264 19.4199 165.205 19.0903 165.088 18.8548C164.97 18.6193 164.796 18.4545 164.567 18.3603C164.343 18.2603 164.066 18.2102 163.737 18.2102C163.395 18.2102 163.098 18.2779 162.845 18.4133C162.598 18.5487 162.392 18.7371 162.227 18.9784C162.068 19.2139 161.947 19.4906 161.865 19.8085C161.782 20.1264 161.741 20.4678 161.741 20.8328ZM175.41 23.6584V16.3912H177.953V25.9454H175.56L175.41 23.6584ZM175.693 21.6981L176.443 21.6805C176.443 22.3162 176.37 22.9079 176.223 23.4553C176.075 23.9969 175.855 24.4679 175.56 24.8682C175.266 25.2626 174.895 25.5716 174.448 25.7953C174 26.0131 173.473 26.122 172.867 26.122C172.402 26.122 171.972 26.0573 171.578 25.9278C171.189 25.7924 170.854 25.5834 170.571 25.3008C170.295 25.0124 170.077 24.6445 169.918 24.1971C169.765 23.7438 169.688 23.1993 169.688 22.5635V16.3912H172.231V22.5811C172.231 22.8637 172.264 23.1021 172.328 23.2964C172.399 23.4907 172.496 23.6496 172.62 23.7732C172.743 23.8968 172.888 23.9851 173.053 24.0381C173.223 24.0911 173.412 24.1176 173.618 24.1176C174.142 24.1176 174.554 24.0116 174.854 23.7997C175.16 23.5878 175.375 23.2993 175.498 22.9344C175.628 22.5635 175.693 22.1514 175.693 21.6981Z" fill="white"/>
<path d="M145.722 43.0224V43.4489C145.722 44.1329 145.629 44.7469 145.443 45.2908C145.258 45.8348 144.996 46.2983 144.658 46.6816C144.32 47.0607 143.917 47.3512 143.447 47.5531C142.981 47.755 142.464 47.856 141.895 47.856C141.331 47.856 140.814 47.755 140.344 47.5531C139.878 47.3512 139.475 47.0607 139.132 46.6816C138.79 46.2983 138.525 45.8348 138.335 45.2908C138.15 44.7469 138.057 44.1329 138.057 43.4489V43.0224C138.057 42.3342 138.15 41.7202 138.335 41.1804C138.521 40.6364 138.782 40.1729 139.12 39.7896C139.462 39.4064 139.866 39.1138 140.332 38.9119C140.801 38.71 141.319 38.609 141.883 38.609C142.452 38.609 142.969 38.71 143.435 38.9119C143.904 39.1138 144.308 39.4064 144.646 39.7896C144.988 40.1729 145.252 40.6364 145.437 41.1804C145.627 41.7202 145.722 42.3342 145.722 43.0224ZM143.849 43.4489V43.01C143.849 42.532 143.805 42.1117 143.719 41.749C143.632 41.3864 143.505 41.0815 143.336 40.8342C143.167 40.587 142.961 40.4016 142.718 40.2779C142.474 40.1502 142.196 40.0863 141.883 40.0863C141.57 40.0863 141.292 40.1502 141.049 40.2779C140.81 40.4016 140.606 40.587 140.437 40.8342C140.272 41.0815 140.146 41.3864 140.06 41.749C139.973 42.1117 139.93 42.532 139.93 43.01V43.4489C139.93 43.9227 139.973 44.3431 140.06 44.7098C140.146 45.0724 140.274 45.3794 140.443 45.6308C140.612 45.878 140.818 46.0655 141.061 46.1933C141.304 46.321 141.582 46.3849 141.895 46.3849C142.209 46.3849 142.487 46.321 142.73 46.1933C142.973 46.0655 143.177 45.878 143.342 45.6308C143.507 45.3794 143.632 45.0724 143.719 44.7098C143.805 44.3431 143.849 43.9227 143.849 43.4489ZM148.688 42.4722V47.7324H146.908V41.0444H148.577L148.688 42.4722ZM148.429 44.1535H147.947C147.947 43.659 148.011 43.214 148.138 42.8184C148.266 42.4187 148.445 42.0787 148.676 41.7985C148.907 41.5142 149.181 41.2978 149.498 41.1495C149.82 40.997 150.178 40.9208 150.574 40.9208C150.887 40.9208 151.173 40.9661 151.433 41.0568C151.692 41.1474 151.915 41.2916 152.1 41.4894C152.29 41.6872 152.434 41.9489 152.533 42.2744C152.636 42.6 152.688 42.9976 152.688 43.4674V47.7324H150.895V43.4612C150.895 43.1645 150.854 42.9338 150.772 42.7689C150.689 42.6041 150.568 42.4887 150.407 42.4228C150.25 42.3527 150.057 42.3177 149.826 42.3177C149.587 42.3177 149.379 42.3651 149.202 42.4599C149.028 42.5547 148.884 42.6865 148.769 42.8555C148.658 43.0203 148.573 43.214 148.515 43.4365C148.458 43.659 148.429 43.898 148.429 44.1535ZM155.92 38.2382V47.7324H154.134V38.2382H155.92ZM159.271 41.0444V47.7324H157.484V41.0444H159.271ZM157.373 39.3013C157.373 39.0417 157.464 38.8274 157.645 38.6585C157.826 38.4895 158.069 38.4051 158.374 38.4051C158.675 38.4051 158.916 38.4895 159.097 38.6585C159.283 38.8274 159.376 39.0417 159.376 39.3013C159.376 39.5609 159.283 39.7752 159.097 39.9442C158.916 40.1131 158.675 40.1976 158.374 40.1976C158.069 40.1976 157.826 40.1131 157.645 39.9442C157.464 39.7752 157.373 39.5609 157.373 39.3013ZM162.485 42.4722V47.7324H160.705V41.0444H162.373L162.485 42.4722ZM162.225 44.1535H161.743C161.743 43.659 161.807 43.214 161.935 42.8184C162.062 42.4187 162.242 42.0787 162.472 41.7985C162.703 41.5142 162.977 41.2978 163.294 41.1495C163.616 40.997 163.974 40.9208 164.37 40.9208C164.683 40.9208 164.97 40.9661 165.229 41.0568C165.489 41.1474 165.711 41.2916 165.897 41.4894C166.086 41.6872 166.23 41.9489 166.329 42.2744C166.432 42.6 166.484 42.9976 166.484 43.4674V47.7324H164.691V43.4612C164.691 43.1645 164.65 42.9338 164.568 42.7689C164.485 42.6041 164.364 42.4887 164.203 42.4228C164.046 42.3527 163.853 42.3177 163.622 42.3177C163.383 42.3177 163.175 42.3651 162.998 42.4599C162.825 42.5547 162.68 42.6865 162.565 42.8555C162.454 43.0203 162.369 43.214 162.312 43.4365C162.254 43.659 162.225 43.898 162.225 44.1535ZM170.916 47.856C170.397 47.856 169.931 47.7736 169.519 47.6087C169.107 47.4398 168.756 47.207 168.468 46.9103C168.184 46.6136 167.965 46.2695 167.813 45.878C167.66 45.4824 167.584 45.0621 167.584 44.6171V44.3698C167.584 43.863 167.656 43.3994 167.8 42.9791C167.945 42.5588 168.151 42.1941 168.419 41.885C168.691 41.576 169.02 41.339 169.408 41.1742C169.795 41.0053 170.232 40.9208 170.718 40.9208C171.192 40.9208 171.612 40.9991 171.979 41.1557C172.346 41.3122 172.653 41.5348 172.9 41.8232C173.151 42.1117 173.341 42.4578 173.469 42.8616C173.596 43.2614 173.66 43.7064 173.66 44.1968V44.9385H168.344V43.7517H171.911V43.6157C171.911 43.3685 171.866 43.148 171.775 42.9544C171.688 42.7566 171.557 42.6 171.379 42.4846C171.202 42.3692 170.976 42.3115 170.699 42.3115C170.465 42.3115 170.263 42.363 170.094 42.4661C169.925 42.5691 169.787 42.7133 169.68 42.8987C169.577 43.0842 169.498 43.3026 169.445 43.5539C169.395 43.8012 169.37 44.0731 169.37 44.3698V44.6171C169.37 44.8849 169.408 45.1322 169.482 45.3588C169.56 45.5855 169.669 45.7812 169.809 45.946C169.954 46.1108 170.127 46.2386 170.329 46.3292C170.535 46.4199 170.767 46.4652 171.027 46.4652C171.348 46.4652 171.647 46.4034 171.923 46.2798C172.203 46.1521 172.445 45.9604 172.646 45.705L173.512 46.6445C173.372 46.8464 173.18 47.0401 172.937 47.2255C172.698 47.4109 172.41 47.5634 172.072 47.6829C171.734 47.7983 171.348 47.856 170.916 47.856Z" fill="#242424"/>
</svg>
