<svg width="420" height="30" viewBox="0 0 420 30" fill="none" xmlns="http://www.w3.org/2000/svg">
<g opacity="0.25">
<path d="M67.5 15H181" stroke="#242424" stroke-linecap="round"/>
<path d="M206.558 21.162C205.67 21.162 204.902 20.976 204.254 20.604C203.606 20.232 203.102 19.71 202.742 19.038C202.394 18.354 202.22 17.544 202.22 16.608C202.22 15.672 202.394 14.868 202.742 14.196C203.102 13.512 203.606 12.984 204.254 12.612C204.902 12.24 205.67 12.054 206.558 12.054C207.422 12.054 208.178 12.24 208.826 12.612C209.474 12.984 209.978 13.512 210.338 14.196C210.698 14.868 210.878 15.672 210.878 16.608C210.878 17.544 210.698 18.354 210.338 19.038C209.978 19.71 209.474 20.232 208.826 20.604C208.178 20.976 207.422 21.162 206.558 21.162ZM206.558 19.758C207.302 19.758 207.902 19.488 208.358 18.948C208.814 18.408 209.042 17.628 209.042 16.608C209.042 15.588 208.814 14.814 208.358 14.286C207.902 13.746 207.302 13.476 206.558 13.476C205.802 13.476 205.196 13.746 204.74 14.286C204.284 14.814 204.056 15.588 204.056 16.608C204.056 17.628 204.284 18.408 204.74 18.948C205.196 19.488 205.802 19.758 206.558 19.758ZM213.099 21V12.216H214.863V13.782C215.319 12.738 216.267 12.156 217.707 12.036L218.301 12L218.427 13.548L217.329 13.656C215.733 13.812 214.935 14.634 214.935 16.122V21H213.099Z" fill="#242424"/>
<path d="M239 15H352.5" stroke="#242424" stroke-linecap="round"/>
</g>
</svg>
