<svg width="0" height="0" class="hidden">
  <symbol xmlns="http://www.w3.org/2000/svg" viewBox="0 0 30 30" id="ic-tg">
    <mask id="mask0_402_2105" maskUnits="userSpaceOnUse" x="0" y="0" width="30" height="30">
      <rect width="30" height="30"></rect>
    </mask>
    <g mask="url(#mask0_402_2105)">
      <path d="M3.02049 13.3426C10.7991 9.95299 15.9849 7.72224 18.5778 6.63583C25.9943 3.55044 27.5298 3.01449 28.5293 3C28.7465 3 29.239 3.05794 29.5577 3.30419C29.8185 3.52147 29.9054 3.82567 29.9343 4.02846C29.9633 4.23126 30.0068 4.70928 29.9778 5.07141C29.5722 9.28666 27.834 19.5278 26.9504 24.2501C26.5737 26.249 25.835 26.9154 25.1252 26.9878C23.5753 27.1327 22.4019 25.9593 20.8955 24.9743C18.5488 23.4389 17.2162 22.4828 14.942 20.9764C12.3056 19.2381 14.0149 18.2821 15.5214 16.7321C15.9125 16.3266 22.7351 10.1123 22.8655 9.5474C22.88 9.47497 22.8944 9.21423 22.7351 9.06938C22.5758 8.92452 22.3585 8.98246 22.1847 9.01143C21.9529 9.06938 18.2012 11.5464 10.9295 16.4424C9.87208 17.1667 8.90156 17.5288 8.03244 17.5144C7.0764 17.4999 5.25124 16.9784 3.88962 16.5294C2.2238 15.9934 0.891143 15.7037 1.00703 14.7766C1.06497 14.2986 1.7313 13.8061 2.99152 13.2991L3.02049 13.3426Z"></path>
    </g>
  </symbol>
  <symbol xmlns="http://www.w3.org/2000/svg" viewBox="0 0 20 20" id="ic-try">
    <mask id="mask0_402_1762" maskUnits="userSpaceOnUse" x="0" y="0" width="20" height="20">
      <rect width="20" height="20"></rect>
    </mask>
    <g mask="url(#mask0_402_1762)">
      <path d="M18.1 10.5L19.5 11.91L12.97 18.5L9.5 15L10.9 13.59L12.97 15.67L18.1 10.5ZM7 15L10 18H0V16C0 13.79 3.58 12 8 12L9.89 12.11L7 15ZM8 2C9.06087 2 10.0783 2.42143 10.8284 3.17157C11.5786 3.92172 12 4.93913 12 6C12 7.06087 11.5786 8.07828 10.8284 8.82843C10.0783 9.57857 9.06087 10 8 10C6.93913 10 5.92172 9.57857 5.17157 8.82843C4.42143 8.07828 4 7.06087 4 6C4 4.93913 4.42143 3.92172 5.17157 3.17157C5.92172 2.42143 6.93913 2 8 2Z"></path>
    </g>
  </symbol>
  <symbol xmlns="http://www.w3.org/2000/svg" viewBox="0 0 30 30" id="ic-user">
    <mask id="mask0_402_2108" maskUnits="userSpaceOnUse" x="0" y="0" width="30" height="30">
      <rect width="30" height="30"></rect>
    </mask>
    <g mask="url(#mask0_402_2108)">
      <path d="M15 3C16.5913 3 18.1174 3.63214 19.2426 4.75736C20.3679 5.88258 21 7.4087 21 9C21 10.5913 20.3679 12.1174 19.2426 13.2426C18.1174 14.3679 16.5913 15 15 15C13.4087 15 11.8826 14.3679 10.7574 13.2426C9.63214 12.1174 9 10.5913 9 9C9 7.4087 9.63214 5.88258 10.7574 4.75736C11.8826 3.63214 13.4087 3 15 3ZM15 18C21.63 18 27 20.685 27 24V27H3V24C3 20.685 8.37 18 15 18Z"></path>
    </g>
  </symbol>
  <symbol xmlns="http://www.w3.org/2000/svg" viewBox="0 0 30 30" id="ic-email">
    <mask id="mask0_402_2106" maskUnits="userSpaceOnUse" x="0" y="0" width="30" height="30">
      <rect width="30" height="30"></rect>
    </mask>
    <g mask="url(#mask0_402_2106)">
      <path d="M24.6 5H5.4C4.08 5 3.012 6.08 3.012 7.4L3 21.8C3 23.12 4.08 24.2 5.4 24.2H24.6C25.92 24.2 27 23.12 27 21.8V7.4C27 6.08 25.92 5 24.6 5ZM24.6 9.8L15 15.8L5.4 9.8V7.4L15 13.4L24.6 7.4V9.8Z"></path>
    </g>
  </symbol>
  <symbol xmlns="http://www.w3.org/2000/svg" viewBox="0 0 30 30" id="ic-inst">
    <mask id="mask0_402_2104" maskUnits="userSpaceOnUse" x="0" y="0" width="30" height="30">
      <rect width="30" height="30"></rect>
    </mask>
    <g mask="url(#mask0_402_2104)">
      <path d="M26.8829 10.0837C26.8683 9.07651 26.682 8.07728 26.3254 7.13527C25.7014 5.52667 24.4308 4.25468 22.8222 3.632C21.8921 3.28207 20.9089 3.09447 19.9136 3.07318C18.6337 3.01597 18.2279 3 14.9787 3C11.7296 3 11.3131 3 10.0425 3.07318C9.04857 3.09447 8.06531 3.28207 7.13527 3.632C5.52667 4.25468 4.25468 5.52667 3.632 7.13527C3.28207 8.06531 3.09314 9.04856 3.07451 10.0425C3.0173 11.3238 3 11.7296 3 14.9787C3 18.2279 3 18.643 3.07451 19.915C3.09447 20.9102 3.28207 21.8921 3.632 22.8248C4.25602 24.4321 5.52667 25.7041 7.1366 26.3268C8.06265 26.6887 9.04591 26.8936 10.0438 26.9255C11.3251 26.9827 11.7309 27 14.98 27C18.2292 27 18.6456 27 19.9163 26.9255C20.9102 26.9055 21.8935 26.7179 22.8248 26.368C24.4334 25.744 25.7041 24.472 26.3281 22.8647C26.678 21.9334 26.8656 20.9514 26.8856 19.9549C26.9428 18.6749 26.9601 18.2691 26.9601 15.0186C26.9574 11.7695 26.9574 11.357 26.8829 10.0837ZM14.9707 21.1231C11.5726 21.1231 8.81971 18.3702 8.81971 14.9721C8.81971 11.5739 11.5726 8.82104 14.9707 8.82104C18.3662 8.82104 21.1217 11.5739 21.1217 14.9721C21.1217 18.3702 18.3662 21.1231 14.9707 21.1231ZM21.3666 10.0278C20.5722 10.0278 19.9323 9.38652 19.9323 8.59352C19.9323 7.80053 20.5722 7.15922 21.3666 7.15922C22.1582 7.15922 22.7995 7.80053 22.7995 8.59352C22.7995 9.38652 22.1582 10.0278 21.3666 10.0278Z"></path>
      <path d="M14.9707 18.9677C17.1774 18.9677 18.9663 17.1788 18.9663 14.9721C18.9663 12.7654 17.1774 10.9766 14.9707 10.9766C12.764 10.9766 10.9752 12.7654 10.9752 14.9721C10.9752 17.1788 12.764 18.9677 14.9707 18.9677Z"></path>
    </g>
  </symbol>
  <symbol xmlns="http://www.w3.org/2000/svg" viewBox="0 0 30 30" id="ic-message">
    <mask id="mask0_402_2109" maskUnits="userSpaceOnUse" x="0" y="0" width="30" height="30">
      <rect width="30" height="30"></rect>
    </mask>
    <g mask="url(#mask0_402_2109)">
      <path d="M27.865 4.97216C28.5029 3.20755 26.793 1.49756 25.0283 2.13696L3.46161 9.93672C1.69109 10.5776 1.47697 12.9934 3.10573 13.937L9.98996 17.9225L16.1373 11.7752C16.4158 11.5062 16.7888 11.3573 17.176 11.3607C17.5632 11.3641 17.9336 11.5194 18.2073 11.7932C18.4811 12.0669 18.6364 12.4373 18.6398 12.8245C18.6432 13.2117 18.4943 13.5847 18.2253 13.8632L12.078 20.0105L16.065 26.8948C17.0071 28.5235 19.4229 28.3079 20.0638 26.5389L27.865 4.97216Z"></path>
    </g>
  </symbol>
  <symbol xmlns="http://www.w3.org/2000/svg" viewBox="0 0 30 30" id="ic-password">
    <mask id="mask0_402_2107" maskUnits="userSpaceOnUse" x="0" y="0" width="30" height="30">
      <rect width="30" height="30"></rect>
    </mask>
    <g mask="url(#mask0_402_2107)">
      <path d="M15.1429 21.2857C15.7491 21.2857 16.3304 21.0449 16.7591 20.6162C17.1878 20.1876 17.4286 19.6062 17.4286 19C17.4286 18.3938 17.1878 17.8124 16.7591 17.3838C16.3304 16.9551 15.7491 16.7143 15.1429 16.7143C14.5366 16.7143 13.9553 16.9551 13.5266 17.3838C13.098 17.8124 12.8571 18.3938 12.8571 19C12.8571 19.6062 13.098 20.1876 13.5266 20.6162C13.9553 21.0449 14.5366 21.2857 15.1429 21.2857ZM22 11C22.6062 11 23.1876 11.2408 23.6162 11.6695C24.0449 12.0981 24.2857 12.6795 24.2857 13.2857V24.7143C24.2857 25.3205 24.0449 25.9019 23.6162 26.3305C23.1876 26.7592 22.6062 27 22 27H8.28571C7.67951 27 7.09812 26.7592 6.66947 26.3305C6.24082 25.9019 6 25.3205 6 24.7143V13.2857C6 12.6795 6.24082 12.0981 6.66947 11.6695C7.09812 11.2408 7.67951 11 8.28571 11H9.42857V8.71429C9.42857 7.19876 10.0306 5.74531 11.1022 4.67368C12.1739 3.60204 13.6273 3 15.1429 3C15.8933 3 16.6363 3.1478 17.3296 3.43497C18.0229 3.72214 18.6528 4.14306 19.1835 4.67368C19.7141 5.2043 20.135 5.83423 20.4222 6.52752C20.7093 7.22081 20.8571 7.96388 20.8571 8.71429V11H22ZM15.1429 5.28571C14.2335 5.28571 13.3615 5.64694 12.7185 6.28992C12.0755 6.9329 11.7143 7.80497 11.7143 8.71429V11H18.5714V8.71429C18.5714 7.80497 18.2102 6.9329 17.5672 6.28992C16.9242 5.64694 16.0522 5.28571 15.1429 5.28571Z"></path>
    </g>
  </symbol>
  <symbol xmlns="http://www.w3.org/2000/svg" viewBox="0 0 30 30" id="ic-phone">
    <mask id="mask0_402_2103" maskUnits="userSpaceOnUse" x="0" y="0" width="30" height="30">
      <rect width="30" height="30"></rect>
    </mask>
    <g mask="url(#mask0_402_2103)">
      <path d="M16.2 10.2C17.1547 10.2 18.0704 10.5793 18.7455 11.2544C19.4207 11.9295 19.7999 12.8452 19.7999 13.8C19.7999 14.1182 19.9264 14.4234 20.1514 14.6485C20.3765 14.8735 20.6817 15 20.9999 15C21.3182 15 21.6234 14.8735 21.8485 14.6485C22.0735 14.4234 22.1999 14.1182 22.1999 13.8C22.1999 12.2087 21.5678 10.6825 20.4426 9.55734C19.3174 8.43212 17.7912 7.79998 16.2 7.79998C15.8817 7.79998 15.5765 7.92641 15.3514 8.15145C15.1264 8.3765 15 8.68172 15 8.99998C15 9.31824 15.1264 9.62346 15.3514 9.8485C15.5765 10.0735 15.8817 10.2 16.2 10.2Z"></path>
      <path d="M16.2 5.39999C18.4278 5.39999 20.5643 6.28499 22.1396 7.86028C23.7149 9.43558 24.5999 11.5721 24.5999 13.8C24.5999 14.1182 24.7263 14.4234 24.9514 14.6485C25.1764 14.8735 25.4817 15 25.7999 15C26.1182 15 26.4234 14.8735 26.6484 14.6485C26.8735 14.4234 26.9999 14.1182 26.9999 13.8C26.9999 10.9356 25.8621 8.18862 23.8367 6.16323C21.8113 4.13785 19.0643 3 16.2 3C15.8817 3 15.5765 3.12643 15.3514 3.35147C15.1264 3.57651 15 3.88174 15 4.2C15 4.51825 15.1264 4.82348 15.3514 5.04852C15.5765 5.27356 15.8817 5.39999 16.2 5.39999Z"></path>
      <path d="M26.6999 19.692C26.6339 19.4994 26.52 19.3267 26.3688 19.1903C26.2177 19.0538 26.0343 18.9581 25.8359 18.912L18.6359 17.268C18.4405 17.2237 18.2371 17.2291 18.0442 17.2836C17.8514 17.3381 17.6753 17.44 17.5319 17.58C17.3639 17.736 17.3519 17.748 16.572 19.236C13.9838 18.0434 11.91 15.9611 10.728 13.368C12.252 12.6001 12.264 12.6001 12.42 12.4201C12.56 12.2767 12.6619 12.1006 12.7164 11.9078C12.7709 11.7149 12.7763 11.5115 12.732 11.3161L11.088 4.20008C11.0419 4.00172 10.9462 3.81833 10.8097 3.66718C10.6733 3.51603 10.5006 3.40209 10.308 3.33609C10.0277 3.23599 9.73835 3.16365 9.44398 3.12009C9.14068 3.04976 8.83118 3.00957 8.51998 3.00009C7.05599 3.00009 5.65196 3.58166 4.61676 4.61685C3.58157 5.65205 3 7.05608 3 8.52007C3.00635 13.4193 4.95538 18.1161 8.41966 21.5803C11.8839 25.0446 16.5807 26.9936 21.4799 27C22.2048 27 22.9226 26.8572 23.5923 26.5798C24.2621 26.3024 24.8706 25.8958 25.3831 25.3832C25.8957 24.8707 26.3023 24.2621 26.5797 23.5924C26.8571 22.9227 26.9999 22.2049 26.9999 21.48C27.0003 21.1746 26.9762 20.8696 26.9279 20.568C26.8775 20.27 26.8012 19.9769 26.6999 19.692Z"></path>
    </g>
  </symbol>
  <symbol xmlns="http://www.w3.org/2000/svg" viewBox="0 0 30 30" id="ic-register">
    <mask id="mask0_402_2110" maskUnits="userSpaceOnUse" x="0" y="0" width="30" height="30">
      <rect width="30" height="30"></rect>
    </mask>
    <g mask="url(#mask0_402_2110)">
      <path d="M20.8756 6.89607L25.1045 11.125C25.2827 11.3032 25.2827 11.5939 25.1045 11.772L14.865 22.0115L10.5142 22.4944C9.9328 22.5601 9.44052 22.0678 9.50615 21.4864L9.98906 17.1356L20.2286 6.89607C20.4067 6.71791 20.6974 6.71791 20.8756 6.89607ZM28.4708 5.82243L26.1828 3.53448C25.4702 2.82184 24.3122 2.82184 23.5948 3.53448L21.9351 5.19418C21.757 5.37234 21.757 5.66302 21.9351 5.84118L26.1641 10.0701C26.3423 10.2483 26.6329 10.2483 26.8111 10.0701L28.4708 8.41043C29.1834 7.6931 29.1834 6.53507 28.4708 5.82243ZM20.0035 19.2266V23.9994H5.00059V8.99648H15.7746C15.9246 8.99648 16.0652 8.93553 16.1731 8.83239L18.0484 6.95702C18.4048 6.6007 18.1516 5.9959 17.6499 5.9959H4.25044C3.00801 5.9959 2 7.00391 2 8.24634V24.7496C2 25.992 3.00801 27 4.25044 27H20.7537C21.9961 27 23.0041 25.992 23.0041 24.7496V17.3512C23.0041 16.8496 22.3993 16.6011 22.043 16.9527L20.1676 18.8281C20.0645 18.9359 20.0035 19.0766 20.0035 19.2266Z"></path>
    </g>
  </symbol>
  <symbol xmlns="http://www.w3.org/2000/svg" viewBox="0 0 20 20" id="ic-sign-in">
    <mask id="mask0_402_1764" maskUnits="userSpaceOnUse" x="0" y="0" width="20" height="20">
      <rect width="20" height="20"></rect>
    </mask>
    <g mask="url(#mask0_402_1764)">
      <path d="M10 19V17H17V3H10V1H17C17.55 1 18.021 1.196 18.413 1.588C18.805 1.98 19.0007 2.45067 19 3V17C19 17.55 18.804 18.021 18.412 18.413C18.02 18.805 17.5493 19.0007 17 19H10ZM8 15L6.625 13.55L9.175 11H1V9H9.175L6.625 6.45L8 5L13 10L8 15Z"></path>
    </g>
  </symbol>
</svg>